<svg width="161" height="46" viewBox="0 0 161 46" fill="none" xmlns="http://www.w3.org/2000/svg">
<rect width="161" height="46" rx="2" fill="#4CA6FF" fill-opacity="0.15"/>
<path d="M17.312 27.328H20.912C23.376 27.328 24.592 26.048 24.592 24.272C24.592 22.72 23.728 21.936 22.384 21.68V21.616C23.68 21.2 24.144 20.368 24.144 19.296C24.144 17.6 23.152 16.576 20.64 16.576H17.312V27.328ZM18.72 26.144V22.336H20.736C22.256 22.336 23.12 22.848 23.12 24.208C23.12 25.504 22.336 26.144 20.832 26.144H18.72ZM18.72 21.2V17.792H20.528C21.92 17.792 22.672 18.16 22.672 19.488C22.672 20.816 21.696 21.2 20.4 21.2H18.72ZM26.4013 27.328H27.7773V15.872H26.4013V27.328ZM32.3783 27.472C33.3383 27.472 34.1543 27.104 34.8103 26.64H34.8903L35.0503 27.328H36.2023V19.376H34.8263V25.728C34.2663 26.016 33.5943 26.304 32.7783 26.304C31.6263 26.304 31.2903 25.888 31.2903 24.912V19.376H29.9463V25.136C29.9463 26.672 30.7943 27.472 32.3783 27.472ZM41.6809 27.472C42.9929 27.472 43.9049 27.056 44.3689 26.704V25.696C43.6489 26.08 42.9609 26.304 41.9049 26.304C40.3209 26.304 39.3929 25.632 39.2969 23.744H44.6089V22.976C44.6089 20.48 43.5689 19.216 41.3929 19.216C39.5369 19.216 37.8889 20.464 37.8889 23.232V23.472C37.8889 25.92 39.1689 27.472 41.6809 27.472ZM41.3289 20.32C42.5289 20.32 43.1689 20.976 43.1689 22.64H39.2969C39.4249 20.816 40.4329 20.32 41.3289 20.32Z" fill="#B3D9FF"/>
</svg>
