<svg width="310" height="597" viewBox="0 0 310 597" fill="none" xmlns="http://www.w3.org/2000/svg">
<g filter="url(#filter0_d)">
<rect x="31" y="31" width="248" height="535" rx="2" fill="#525866" fill-opacity="0.2"/>
<rect x="31" y="31" width="248" height="535" rx="2" fill="url(#paint0_linear)"/>
<rect x="30.95" y="30.95" width="248.1" height="535.1" rx="2.05" stroke="white" stroke-opacity="0.55" stroke-width="0.1"/>
</g>
<g filter="url(#filter1_b)">
<path fill-rule="evenodd" clip-rule="evenodd" d="M127.06 312.191V310.522V288.368L127.06 286.711L128.232 285.539L140.542 273.231L141.714 272.06H143.37H163.06V266.214L177.829 276.06L163.06 285.906V280.06H145.027L135.06 290.025V308.853L145.14 318.829H162.859L173.829 308.763V288.368H181.829V310.522V312.28L180.534 313.469L167.12 325.777L165.973 326.829H164.416H143.495H141.851L140.682 325.672L128.246 313.365L127.06 312.191ZM149.211 288.367V300.675V303.147L151.422 304.252L161.268 309.175L164.846 302.02L157.211 298.203V288.367H149.211Z" fill="white" fill-opacity="0.93"/>
</g>
<defs>
<filter id="filter0_d" x="0.899902" y="0.899902" width="308.2" height="595.2" filterUnits="userSpaceOnUse" color-interpolation-filters="sRGB">
<feFlood flood-opacity="0" result="BackgroundImageFix"/>
<feColorMatrix in="SourceAlpha" type="matrix" values="0 0 0 0 0 0 0 0 0 0 0 0 0 0 0 0 0 0 127 0" result="hardAlpha"/>
<feOffset/>
<feGaussianBlur stdDeviation="15"/>
<feColorMatrix type="matrix" values="0 0 0 0 0 0 0 0 0 0 0 0 0 0 0 0 0 0 0.4 0"/>
<feBlend mode="normal" in2="BackgroundImageFix" result="effect1_dropShadow"/>
<feBlend mode="normal" in="SourceGraphic" in2="effect1_dropShadow" result="shape"/>
</filter>
<filter id="filter1_b" x="77.0601" y="216.214" width="154.769" height="160.615" filterUnits="userSpaceOnUse" color-interpolation-filters="sRGB">
<feFlood flood-opacity="0" result="BackgroundImageFix"/>
<feGaussianBlur in="BackgroundImage" stdDeviation="25"/>
<feComposite in2="SourceAlpha" operator="in" result="effect1_backgroundBlur"/>
<feBlend mode="normal" in="SourceGraphic" in2="effect1_backgroundBlur" result="shape"/>
</filter>
<linearGradient id="paint0_linear" x1="155" y1="31" x2="155" y2="566" gradientUnits="userSpaceOnUse">
<stop stop-color="#525866" stop-opacity="0.6"/>
<stop offset="1" stop-color="#C76761" stop-opacity="0.6"/>
</linearGradient>
</defs>
</svg>
