<svg width="162" height="47" viewBox="0 0 162 47" fill="none" xmlns="http://www.w3.org/2000/svg">
<path fill-rule="evenodd" clip-rule="evenodd" d="M2.74609 0.448242C1.64152 0.448242 0.746094 1.34367 0.746094 2.44824V44.4482C0.746094 45.5528 1.64153 46.4482 2.7461 46.4482H146.746L161.746 31.4482V2.44824C161.746 1.34367 160.851 0.448242 159.746 0.448242H2.74609Z" fill="#EC9147"/>
<path d="M22.1381 27.9522C25.1301 27.9522 26.8901 25.8882 26.8901 22.5602V22.2562C26.8901 18.7682 25.1301 16.8482 22.2021 16.8482C19.2261 16.8482 17.4341 18.9122 17.4341 22.2402V22.5442C17.4341 26.0482 19.2261 27.9522 22.1381 27.9522ZM22.1861 26.8002C19.8181 26.8002 18.9541 25.0242 18.9541 22.5282V22.0002C18.9541 19.7282 19.9621 18.0162 22.1381 18.0162C24.5381 18.0162 25.3861 19.7762 25.3861 22.2722V22.7842C25.3861 25.0562 24.3781 26.8002 22.1861 26.8002ZM28.6935 27.7762H30.0535V21.5682C30.6135 21.2002 31.3655 20.9602 32.1175 20.9602C32.2455 20.9602 32.5015 20.9762 32.7255 21.0082V19.7922C32.6455 19.7602 32.4215 19.7282 32.2295 19.7282C31.3655 19.7282 30.5015 20.1762 30.0695 20.7042H29.9895V19.8242H28.6935V27.7762ZM35.9267 27.9202C36.9827 27.9202 37.6067 27.5522 38.0067 27.1042H38.0867L38.2307 27.7762H39.3187V22.0162C39.3187 20.4162 38.3107 19.6642 36.5507 19.6642C35.5907 19.6642 34.8387 19.8242 34.1187 20.0962V21.0722C34.5987 20.9762 35.2387 20.8482 36.0227 20.8482C37.4467 20.8482 37.9747 21.1362 37.9747 22.3522V23.0882L35.8627 23.3442C34.3587 23.5362 33.4627 24.2882 33.4627 25.6642C33.4627 27.2002 34.5027 27.9202 35.9267 27.9202ZM36.2627 26.8642C35.4307 26.8642 34.8707 26.4642 34.8707 25.6322C34.8707 24.7682 35.3027 24.4002 36.2147 24.3042L37.9747 24.1282V26.3202C37.6227 26.6402 36.9667 26.8642 36.2627 26.8642ZM41.4435 27.7762H42.8035V21.3762C43.3795 21.1042 44.1955 20.8482 44.8995 20.8482C46.1475 20.8482 46.4515 21.2322 46.4515 22.1442V27.7762H47.7955V21.8562C47.7955 20.3202 47.0595 19.6642 45.4915 19.6642C44.5155 19.6642 43.4915 20.0322 42.8195 20.5122H42.7395V19.8242H41.4435V27.7762ZM52.7278 30.1282C55.4478 30.1282 56.5518 29.2002 56.5518 27.7762C56.5518 26.2402 55.4798 25.7602 54.0238 25.7602H51.8478C51.3358 25.7602 51.0958 25.6482 51.0958 25.2482C51.0958 25.0082 51.2238 24.8002 51.4318 24.6402C51.8318 24.7682 52.2638 24.8322 52.7438 24.8322C54.4398 24.8322 55.7678 24.0322 55.7678 22.3362V22.1762C55.7678 21.6322 55.6078 21.1842 55.2718 20.8322H56.6318V19.8082H53.9278C53.5598 19.7122 53.1758 19.6642 52.7598 19.6642C50.9998 19.6642 49.7358 20.6082 49.7358 22.2402V22.4002C49.7358 23.2962 50.1198 23.9362 50.7278 24.3202C50.0878 24.7842 49.8158 25.2642 49.8158 25.7602C49.8158 26.3042 50.1518 26.5442 50.6158 26.7202V26.8002C49.7998 27.0402 49.1278 27.5522 49.1278 28.4002C49.1278 29.5842 50.3118 30.1282 52.7278 30.1282ZM52.6958 29.0562C51.2078 29.0562 50.5678 28.9282 50.5678 28.2082C50.5678 27.5682 50.9838 27.2322 51.5278 27.0402H53.7678C54.7918 27.0402 55.1278 27.3442 55.1278 27.9842C55.1278 28.7842 54.4878 29.0562 52.6958 29.0562ZM52.7438 23.8082C51.7358 23.8082 51.0958 23.3602 51.0958 22.3682V22.1282C51.0958 21.2322 51.7038 20.6882 52.7438 20.6882C53.7518 20.6882 54.4238 21.1522 54.4238 22.1602V22.4002C54.4238 23.3602 53.7998 23.8082 52.7438 23.8082ZM61.2238 27.9202C62.5358 27.9202 63.4478 27.5042 63.9118 27.1522V26.1442C63.1918 26.5282 62.5038 26.7522 61.4478 26.7522C59.8638 26.7522 58.9358 26.0802 58.8398 24.1922H64.1518V23.4242C64.1518 20.9282 63.1118 19.6642 60.9358 19.6642C59.0798 19.6642 57.4318 20.9122 57.4318 23.6802V23.9202C57.4318 26.3682 58.7118 27.9202 61.2238 27.9202ZM60.8718 20.7682C62.0718 20.7682 62.7118 21.4242 62.7118 23.0882H58.8398C58.9678 21.2642 59.9758 20.7682 60.8718 20.7682Z" fill="white" fill-opacity="0.93"/>
<path d="M146.746 46.4482V33.4482C146.746 32.3437 147.642 31.4482 148.746 31.4482H161.746L146.746 46.4482Z" fill="white" fill-opacity="0.3"/>
</svg>
