<svg width="24" height="22" viewBox="0 0 24 22" fill="none" xmlns="http://www.w3.org/2000/svg">
<g opacity="0.3">
<path fill-rule="evenodd" clip-rule="evenodd" d="M15.7285 3.08984H2H1.90735e-06L0 5.08984V19.2731V21.2731H2L18.1832 21.2731L22.9683 16.488L22.9683 6.67746L20.9683 8.67746L20.9683 15.6596L17.3548 19.2731L2 19.2731L2 5.08984L13.7285 5.08984L15.7285 3.08984Z" fill="white"/>
<path fill-rule="evenodd" clip-rule="evenodd" d="M22.2361 0.353478L23.6469 1.76431C23.8421 1.95957 23.8421 2.27616 23.6469 2.47142L22.1905 3.92778L20.0726 1.80984L21.5289 0.353478C21.7242 0.158216 22.0408 0.158216 22.2361 0.353478ZM18.9412 2.94121L12.0694 9.81303C12.0146 9.86786 11.9732 9.93468 11.9487 10.0082L11.2415 12.1263C11.1109 12.5173 11.483 12.8895 11.8741 12.7589L13.9921 12.0517C14.0657 12.0271 14.1325 11.9858 14.1873 11.931L21.0592 5.05915L18.9412 2.94121Z" fill="white" fill-opacity="0.93"/>
</g>
</svg>
