<svg width="160" height="48" viewBox="0 0 160 48" fill="none" xmlns="http://www.w3.org/2000/svg">
<rect width="160" height="48" rx="4" fill="#387CFF"/>
<path d="M45.2632 26.552L45.1032 25.048C43.2632 25.384 40.6392 25.464 39.2792 25.464V22.568H43.9032V17.224H37.3432V18.712H42.0312V21.08H37.4072V27H38.9112C41.3272 27 43.7592 26.84 45.2632 26.552ZM47.9832 16.008H46.1112V30.264H47.9832V23.016H49.9832V21.48H47.9832V16.008ZM63.2349 30.136V28.632H55.0589V27.688H62.7869V23.88H53.0909V25.368H60.9149V26.344H53.1869V30.136H63.2349ZM56.9629 22.616V20.392H58.2429V23.144H60.0189V16.264H58.2429V18.904H56.9629V16.616H55.0909V18.28H53.0749V16.648H51.1869V22.616H56.9629ZM62.8029 23.208V16.008H61.0269V23.208H62.8029ZM55.0909 21.128H53.0749V19.736H55.0909V21.128ZM80.9778 27.384C80.9778 25.624 79.1058 24.504 76.0018 24.504C72.9138 24.504 71.0418 25.624 71.0418 27.384C71.0418 29.128 72.9138 30.264 76.0018 30.264C79.1058 30.264 80.9778 29.128 80.9778 27.384ZM80.8658 24.568V16.008H79.0898V19.528H77.9218V16.264H76.1938V24.008H77.9218V21.032H79.0898V24.568H80.8658ZM75.9058 22.328C74.4338 21.64 73.2338 20.248 73.2338 18.264V16.904H71.4258V18.312C71.4258 20.328 70.3378 21.896 68.6098 22.856L69.6338 24.184C70.8658 23.624 71.9858 22.36 72.3858 21.256C72.7538 22.168 74.0178 23.32 74.9618 23.736L75.9058 22.328ZM79.0738 27.384C79.0738 28.248 77.8898 28.76 76.0018 28.76C74.1458 28.76 72.9778 28.248 72.9778 27.384C72.9778 26.536 74.1458 26.008 76.0018 26.008C77.8898 26.008 79.0738 26.536 79.0738 27.384ZM94.3736 24.328V16.008H92.5016V18.968H90.0696V20.456H92.5016V24.328H94.3736ZM91.1096 22.328C89.4456 21.784 87.8136 20.184 87.8136 17.976V16.664H85.8776V18.072C85.8776 20.232 84.5016 21.896 82.4376 22.648L83.5576 24.136C84.8856 23.688 86.4376 22.344 86.8696 20.888C87.4936 22.216 88.9656 23.352 90.0376 23.784L91.1096 22.328ZM94.4696 27.384C94.4696 25.608 92.6776 24.488 89.5576 24.488C86.4856 24.488 84.7096 25.608 84.7096 27.384C84.7096 29.112 86.4856 30.248 89.5576 30.248C92.6776 30.248 94.4696 29.112 94.4696 27.384ZM89.5576 25.992C91.4776 25.992 92.5336 26.52 92.5336 27.384C92.5336 28.232 91.4776 28.744 89.5576 28.744C87.7176 28.744 86.6296 28.232 86.6296 27.384C86.6296 26.52 87.7176 25.992 89.5576 25.992ZM104.633 20.888V19.4H96.3613V20.888H104.633ZM98.3613 18.408H102.761V16.936H98.3613V18.408ZM107.577 16.008H105.689V30.264H107.577V23.336H109.561V21.784H107.577V16.008ZM97.0653 24.456C97.0653 26.264 98.4573 27.528 100.505 27.528C102.553 27.528 103.945 26.2 103.945 24.456C103.945 22.664 102.553 21.384 100.505 21.384C98.4573 21.384 97.0653 22.712 97.0653 24.456ZM98.8893 24.456C98.8893 23.512 99.5773 22.888 100.505 22.888C101.433 22.888 102.121 23.512 102.121 24.456C102.121 25.384 101.545 26.008 100.505 26.008C99.5613 26.008 98.8893 25.384 98.8893 24.456ZM122.061 30.264V16.008H120.189V30.264H122.061ZM117.677 17.496H111.021V19.048H115.661C115.405 21.88 113.277 24.856 110.157 26.28L111.309 27.688C115.661 25.32 117.565 21.8 117.677 17.496Z" fill="white"/>
</svg>
