<svg width="335" height="54" viewBox="0 0 335 54" fill="none" xmlns="http://www.w3.org/2000/svg">
<rect width="335" height="54" rx="4" fill="#387CFF"/>
<path d="M131.162 27.16C129.29 27.528 126.81 27.656 124.794 27.64V24.456H129.818V19.4H123.338V20.552H128.41V23.32H123.386V28.808H125.066C127.274 28.808 129.802 28.6 131.306 28.344L131.162 27.16ZM133.674 18.136H132.266V32.12H133.674V24.856H135.85V23.688H133.674V18.136ZM142.829 24.728V22.28H144.509V25.4H145.853V18.424H144.509V21.112H142.829V18.728H141.421V20.504H138.733V18.76H137.325V24.728H142.829ZM149.021 32.024V30.856H140.717V29.56H148.509V26.168H139.261V27.32H147.101V28.488H139.293V32.024H149.021ZM148.525 25.496V18.136H147.165V25.496H148.525ZM141.421 23.576H138.733V21.64H141.421V23.576ZM166.748 24.536C164.668 24.328 162.316 23.304 161.868 21.752H166.108V20.6H156.028V21.752H160.3C159.868 23.32 157.58 24.328 155.404 24.584L156.044 25.72C158.3 25.4 160.428 24.248 161.068 22.92C161.82 24.232 164.028 25.368 166.108 25.672L166.748 24.536ZM161.756 32.12V27.752H167.388V26.584H154.764V27.752H160.332V32.12H161.756ZM163.34 19.464V18.312H158.796V19.464H163.34ZM179.408 18.136H178V32.12H179.408V25.048H181.648V23.864H179.408V18.136ZM175.728 19.624H169.232V20.824H174.208C173.952 23.832 171.92 26.76 168.624 28.344L169.488 29.416C173.312 27.336 175.648 24.072 175.728 19.624ZM195.359 26.6L195.231 25.512C194.431 25.624 192.879 25.752 191.471 25.832V24.488C193.183 24.264 194.367 23.144 194.367 21.672C194.367 20.024 192.879 18.776 190.767 18.776C188.655 18.776 187.167 20.024 187.167 21.672C187.167 23.144 188.319 24.264 190.063 24.488V25.896C188.751 25.944 187.391 25.96 186.367 25.96L186.575 27.144C187.535 27.144 189.343 27.096 190.927 27C192.527 26.904 194.335 26.744 195.359 26.6ZM199.599 24.04V22.84H197.519V18.136H196.127V28.648H197.519V24.04H199.599ZM197.871 31.848V30.712H189.935V27.976H188.511V31.848H197.871ZM192.895 21.672C192.895 22.584 192.095 23.368 190.767 23.368C189.423 23.368 188.623 22.616 188.623 21.672C188.623 20.792 189.423 19.944 190.767 19.944C192.095 19.944 192.895 20.76 192.895 21.672ZM211.923 26.808V25.64H203.459V23.576H211.539V19.304H202.019V20.456H210.131V22.424H202.035V26.808H203.907V29.192H200.499V30.344H213.123V29.192H209.763V26.808H211.923ZM205.283 26.808H208.371V29.192H205.283V26.808Z" fill="white"/>
</svg>
