<svg width="119" height="70" viewBox="0 0 119 70" fill="none" xmlns="http://www.w3.org/2000/svg">
<g filter="url(#filter0_f_5062_72975)">
<path d="M117.592 49.1309C114.112 56.9391 110.065 57.2341 104.216 63.2307C99.2728 68.2991 40.4912 59.386 5.85051 52.0657L20.3504 10.9416L55.9275 8.45693C59.1797 9.59557 120.376 42.8843 117.592 49.1309Z" fill="url(#paint0_radial_5062_72975)" fill-opacity="0.6"/>
</g>
<path fill-rule="evenodd" clip-rule="evenodd" d="M74.651 0L4 0L4 52H61.8496L74.651 39.1986V0Z" fill="#387CFF"/>
<path d="M74.8496 39L61.8496 52L61.8496 39L74.8496 39Z" fill="url(#paint1_linear_5062_72975)" fill-opacity="0.3"/>
<path fill-rule="evenodd" clip-rule="evenodd" d="M37.5 27.5V36H40.5V27.5H49V24.5H40.5V16H37.5V24.5H29V27.5H37.5Z" fill="white" fill-opacity="0.93"/>
<defs>
<filter id="filter0_f_5062_72975" x="0.850586" y="3.45703" width="121.833" height="66.2622" filterUnits="userSpaceOnUse" color-interpolation-filters="sRGB">
<feFlood flood-opacity="0" result="BackgroundImageFix"/>
<feBlend mode="normal" in="SourceGraphic" in2="BackgroundImageFix" result="shape"/>
<feGaussianBlur stdDeviation="2.5" result="effect1_foregroundBlur_5062_72975"/>
</filter>
<radialGradient id="paint0_radial_5062_72975" cx="0" cy="0" r="1" gradientUnits="userSpaceOnUse" gradientTransform="translate(-5.15039 57.0921) rotate(-5.62868) scale(102.494 28.5445)">
<stop stop-opacity="0.8"/>
<stop offset="0.927083" stop-opacity="0"/>
</radialGradient>
<linearGradient id="paint1_linear_5062_72975" x1="62.7782" y1="39.9286" x2="90.171" y2="67.3214" gradientUnits="userSpaceOnUse">
<stop stop-color="white"/>
<stop offset="1" stop-color="white" stop-opacity="0"/>
</linearGradient>
</defs>
</svg>
