<svg width="162" height="47" viewBox="0 0 162 47" fill="none" xmlns="http://www.w3.org/2000/svg">
<path fill-rule="evenodd" clip-rule="evenodd" d="M2.74609 0.985352C1.64152 0.985352 0.746094 1.88078 0.746094 2.98535V44.9854C0.746094 46.0899 1.64153 46.9854 2.7461 46.9854H146.746L161.746 31.9854V2.98535C161.746 1.88078 160.851 0.985352 159.746 0.985352H2.74609Z" fill="#6565E5"/>
<path d="M22.1381 28.4894C23.3861 28.4894 24.3941 28.2334 25.1461 27.8014V26.6014C24.4581 26.9214 23.6421 27.2894 22.3461 27.2894C19.9301 27.2894 18.9541 25.7214 18.9541 23.0654V22.4894C18.9541 19.7054 20.3621 18.5854 22.2661 18.5854C23.3381 18.5854 24.1221 18.8094 25.0181 19.1454V17.9774C24.3621 17.6094 23.4981 17.3854 22.3781 17.3854C19.6421 17.3854 17.4341 18.8414 17.4341 22.7134V23.0814C17.4341 26.7294 19.2741 28.4894 22.1381 28.4894ZM29.9072 28.4574C32.0832 28.4574 33.5552 26.9374 33.5552 24.4414V24.1854C33.5552 21.6894 32.1952 20.2014 29.9232 20.2014C27.7472 20.2014 26.2912 21.7374 26.2912 24.2334V24.5054C26.2912 26.9854 27.6192 28.4574 29.9072 28.4574ZM29.9392 27.3374C28.7072 27.3374 27.6992 26.6814 27.6992 24.5374V24.0894C27.6992 22.3134 28.4992 21.3214 29.8912 21.3214C31.1232 21.3214 32.1312 22.0094 32.1312 24.1534V24.5854C32.1312 26.3614 31.3312 27.3374 29.9392 27.3374ZM38.1527 28.5054C40.7767 28.5054 42.1367 26.9534 42.1367 24.3134V24.0734C42.1367 21.1134 40.5367 20.2014 39.0487 20.2014C37.9927 20.2014 37.2727 20.4734 36.6647 20.8414H36.5847V16.8574H35.2247V28.0894C35.8967 28.3294 37.2407 28.5054 38.1527 28.5054ZM38.2487 27.3534C37.4487 27.3534 36.9207 27.2254 36.5847 27.0974V21.8174C36.9527 21.6574 37.6727 21.3694 38.4087 21.3694C40.0087 21.3694 40.7447 22.0734 40.7447 24.1694V24.5214C40.7447 26.7454 39.5447 27.3534 38.2487 27.3534ZM45.8173 28.4574C46.8733 28.4574 47.4973 28.0894 47.8973 27.6414H47.9773L48.1213 28.3134H49.2093V22.5534C49.2093 20.9534 48.2013 20.2014 46.4413 20.2014C45.4813 20.2014 44.7293 20.3614 44.0093 20.6334V21.6094C44.4893 21.5134 45.1293 21.3854 45.9133 21.3854C47.3373 21.3854 47.8653 21.6734 47.8653 22.8894V23.6254L45.7533 23.8814C44.2493 24.0734 43.3533 24.8254 43.3533 26.2014C43.3533 27.7374 44.3933 28.4574 45.8173 28.4574ZM46.1533 27.4014C45.3213 27.4014 44.7613 27.0014 44.7613 26.1694C44.7613 25.3054 45.1933 24.9374 46.1053 24.8414L47.8653 24.6654V26.8574C47.5133 27.1774 46.8573 27.4014 46.1533 27.4014ZM51.3661 28.3134H52.7421V16.8574H51.3661V28.3134ZM57.5191 28.3934C58.2391 28.3934 58.5591 28.2334 58.8951 28.0894V27.1614C58.5751 27.2414 58.2071 27.2894 57.8871 27.2894C56.9911 27.2894 56.7351 27.0014 56.7351 26.2494V21.4974H58.7351V20.3614H56.7351V18.4734H55.3751V20.3614H54.2391V21.4974H55.3751V26.4414C55.3751 27.8494 56.2551 28.3934 57.5191 28.3934ZM64.8862 28.3134H68.4862C70.9502 28.3134 72.1662 27.0334 72.1662 25.2574C72.1662 23.7054 71.3022 22.9214 69.9582 22.6654V22.6014C71.2542 22.1854 71.7182 21.3534 71.7182 20.2814C71.7182 18.5854 70.7262 17.5614 68.2142 17.5614H64.8862V28.3134ZM66.2942 27.1294V23.3214H68.3102C69.8302 23.3214 70.6942 23.8334 70.6942 25.1934C70.6942 26.4894 69.9102 27.1294 68.4062 27.1294H66.2942ZM66.2942 22.1854V18.7774H68.1022C69.4942 18.7774 70.2462 19.1454 70.2462 20.4734C70.2462 21.8014 69.2702 22.1854 67.9742 22.1854H66.2942ZM73.9755 28.3134H75.3515V16.8574H73.9755V28.3134ZM79.9525 28.4574C80.9125 28.4574 81.7285 28.0894 82.3845 27.6254H82.4645L82.6245 28.3134H83.7765V20.3614H82.4005V26.7134C81.8405 27.0014 81.1685 27.2894 80.3525 27.2894C79.2005 27.2894 78.8645 26.8734 78.8645 25.8974V20.3614H77.5205V26.1214C77.5205 27.6574 78.3685 28.4574 79.9525 28.4574ZM89.2551 28.4574C90.5671 28.4574 91.4791 28.0414 91.9431 27.6894V26.6814C91.2231 27.0654 90.5351 27.2894 89.4791 27.2894C87.8951 27.2894 86.9671 26.6174 86.8711 24.7294H92.1831V23.9614C92.1831 21.4654 91.1431 20.2014 88.9671 20.2014C87.1111 20.2014 85.4631 21.4494 85.4631 24.2174V24.4574C85.4631 26.9054 86.7431 28.4574 89.2551 28.4574ZM88.9031 21.3054C90.1031 21.3054 90.7431 21.9614 90.7431 23.6254H86.8711C86.9991 21.8014 88.0071 21.3054 88.9031 21.3054Z" fill="white" fill-opacity="0.93"/>
<path d="M146.746 46.9854V33.9854C146.746 32.8808 147.642 31.9854 148.746 31.9854H161.746L146.746 46.9854Z" fill="white" fill-opacity="0.3"/>
</svg>
