<svg width="162" height="47" viewBox="0 0 162 47" fill="none" xmlns="http://www.w3.org/2000/svg">
<path fill-rule="evenodd" clip-rule="evenodd" d="M2.72266 0.448242C1.61809 0.448242 0.722656 1.34367 0.722656 2.44824V44.4482C0.722656 45.5528 1.61809 46.4482 2.72266 46.4482H146.723L161.723 31.4482V2.44824C161.723 1.34367 160.827 0.448242 159.723 0.448242H2.72266Z" fill="#3EA87A"/>
<path d="M22.4027 27.9522C23.7947 27.9522 24.9467 27.6642 25.7627 27.3282V22.5122H22.1147V23.6802H24.3707V26.4642C23.8907 26.6402 23.1547 26.7682 22.4507 26.7682C19.6027 26.7682 18.9307 24.9922 18.9307 22.6082V22.1122C18.9307 20.0162 19.7947 18.0482 22.4187 18.0482C23.8747 18.0482 24.6907 18.4162 25.3467 18.7042V17.5042C24.7067 17.1522 23.8587 16.8482 22.5307 16.8482C19.8587 16.8482 17.4107 18.2402 17.4107 22.3202V22.6402C17.4107 26.3522 19.3947 27.9522 22.4027 27.9522ZM27.8263 27.7762H29.1863V21.5682C29.7463 21.2002 30.4983 20.9602 31.2503 20.9602C31.3783 20.9602 31.6343 20.9762 31.8583 21.0082V19.7922C31.7783 19.7602 31.5543 19.7282 31.3623 19.7282C30.4983 19.7282 29.6343 20.1762 29.2023 20.7042H29.1223V19.8242H27.8263V27.7762ZM36.5598 27.9202C37.8718 27.9202 38.7838 27.5042 39.2478 27.1522V26.1442C38.5278 26.5282 37.8398 26.7522 36.7838 26.7522C35.1998 26.7522 34.2718 26.0802 34.1758 24.1922H39.4878V23.4242C39.4878 20.9282 38.4478 19.6642 36.2718 19.6642C34.4158 19.6642 32.7678 20.9122 32.7678 23.6802V23.9202C32.7678 26.3682 34.0478 27.9202 36.5598 27.9202ZM36.2078 20.7682C37.4078 20.7682 38.0478 21.4242 38.0478 23.0882H34.1758C34.3038 21.2642 35.3118 20.7682 36.2078 20.7682ZM44.466 27.9202C45.778 27.9202 46.69 27.5042 47.154 27.1522V26.1442C46.434 26.5282 45.746 26.7522 44.69 26.7522C43.106 26.7522 42.178 26.0802 42.082 24.1922H47.394V23.4242C47.394 20.9282 46.354 19.6642 44.178 19.6642C42.322 19.6642 40.674 20.9122 40.674 23.6802V23.9202C40.674 26.3682 41.954 27.9202 44.466 27.9202ZM44.114 20.7682C45.314 20.7682 45.954 21.4242 45.954 23.0882H42.082C42.21 21.2642 43.218 20.7682 44.114 20.7682ZM49.0763 27.7762H50.4363V21.3762C51.0123 21.1042 51.8283 20.8482 52.5323 20.8482C53.7803 20.8482 54.0843 21.2322 54.0843 22.1442V27.7762H55.4283V21.8562C55.4283 20.3202 54.6923 19.6642 53.1243 19.6642C52.1483 19.6642 51.1243 20.0322 50.4523 20.5122H50.3723V19.8242H49.0763V27.7762Z" fill="white" fill-opacity="0.93"/>
<path d="M146.723 46.4482V33.4482C146.723 32.3437 147.618 31.4482 148.723 31.4482H161.723L146.723 46.4482Z" fill="white" fill-opacity="0.3"/>
</svg>
