<svg width="335" height="54" viewBox="0 0 335 54" fill="none" xmlns="http://www.w3.org/2000/svg">
<g opacity="0.5">
<rect width="335" height="54" rx="4" fill="#387CFF"/>
<path d="M123.883 31.408V29.92H111.003V31.408H123.883ZM123.611 25.568C121.435 25.2 118.427 23.328 118.427 20.816V19.872H116.475V20.816C116.475 23.344 113.643 25.232 111.307 25.568L112.187 27.088C114.155 26.656 116.699 25.136 117.435 23.216C118.251 25.088 120.715 26.576 122.667 27.024L123.611 25.568ZM136.223 20.56H126.383V22.032H134.351C134.351 22.704 134.319 23.52 134.271 24.368C131.487 24.496 128.687 24.608 125.871 24.72L126.111 26.208C128.799 26.08 131.503 25.92 134.191 25.792C134.079 27.024 133.935 28.208 133.727 29.056C134.319 29.104 134.943 29.152 135.519 29.216C135.935 27.536 136.223 24.096 136.223 20.56ZM137.727 31.376V29.904H124.847V31.376H137.727ZM150.467 29.344V19.008H148.595V29.344H150.467ZM150.835 32.96V31.472H142.851V28.688H140.963V32.96H150.835ZM147.059 25.76C145.971 26.064 143.059 26.192 141.283 26.192V24.432H145.843V20H139.379V21.488H143.955V23.024H139.411V27.664C140.051 27.664 140.675 27.68 141.331 27.68C143.251 27.68 146.035 27.488 147.235 27.184L147.059 25.76ZM165.703 24.48H163.687V22.736H165.703V21.2H163.687V19.008H161.799V28.448H163.687V26.016H165.703V24.48ZM160.935 25.472C159.255 24.928 157.607 23.2 157.607 21.008V19.712H155.687V21.088C155.687 23.248 154.295 25.056 152.231 25.808L153.351 27.296C154.679 26.832 156.215 25.392 156.663 23.936C157.271 25.264 158.759 26.512 159.847 26.928L160.935 25.472ZM164.679 31.952C162.279 31.568 160.167 30.096 160.167 28.144V27.664H158.215V28.144C158.215 30.096 156.119 31.616 153.639 31.92L154.503 33.424C156.519 33.088 158.535 31.744 159.159 30.4C159.847 31.728 161.927 33.104 163.783 33.424L164.679 31.952ZM182.374 26.896V19.008H180.502V22.464H177.878V24H180.502V26.896H182.374ZM182.374 33.088V27.632H172.998V33.088H182.374ZM180.502 31.632H174.886V29.088H180.502V31.632ZM177.878 19.856H171.254V21.408H175.798C175.286 23.776 173.222 25.248 170.63 25.904L171.622 27.408C175.558 26.064 177.718 23.824 177.878 19.856ZM196.553 27.376V19.008H194.777V22.432H193.625V19.264H191.881V27.232H193.625V23.936H194.777V27.376H196.553ZM186.649 28.048V29.536H194.697V33.28H196.553V28.048H186.649ZM191.593 25.328C190.121 24.64 188.905 23.248 188.905 21.264V19.904H187.113V21.312C187.113 23.328 186.009 24.896 184.281 25.84L185.321 27.184C186.537 26.624 187.673 25.344 188.073 24.256C188.425 25.168 189.705 26.32 190.649 26.72L191.593 25.328ZM206.477 23.888V22.4H198.205V23.888H206.477ZM200.205 21.408H204.605V19.936H200.205V21.408ZM209.421 19.008H207.533V33.264H209.421V26.336H211.405V24.784H209.421V19.008ZM198.909 27.456C198.909 29.264 200.301 30.528 202.349 30.528C204.397 30.528 205.789 29.2 205.789 27.456C205.789 25.664 204.397 24.384 202.349 24.384C200.301 24.384 198.909 25.712 198.909 27.456ZM200.733 27.456C200.733 26.512 201.421 25.888 202.349 25.888C203.277 25.888 203.965 26.512 203.965 27.456C203.965 28.384 203.389 29.008 202.349 29.008C201.405 29.008 200.733 28.384 200.733 27.456ZM223.905 33.264V19.008H222.033V33.264H223.905ZM219.521 20.496H212.865V22.048H217.505C217.249 24.88 215.121 27.856 212.001 29.28L213.153 30.688C217.505 28.32 219.409 24.8 219.521 20.496Z" fill="white" fill-opacity="0.93"/>
</g>
</svg>
