<svg width="335" height="195" viewBox="0 0 335 195" fill="none" xmlns="http://www.w3.org/2000/svg">
<g filter="url(#filter0_i_1862_49738)">
<rect width="335" height="195" rx="2" fill="#1B1D21"/>
</g>
<rect x="0.5" y="0.5" width="334" height="194" rx="1.5" stroke="#292C33" stroke-dasharray="4 4"/>
<path d="M167.495 65.495L171.29 61.7H172H175.71L178.3 64.2899V70.7101L167 82.01L155.7 70.7101V64.2899L158.29 61.7H162.71L166.505 65.495L167 65.9899L167.495 65.495Z" stroke="#EFF0FF" stroke-opacity="0.18" stroke-width="1.4"/>
<path d="M148.459 103.946C146.583 103.582 143.909 101.762 143.909 99.718V98.766H142.635V99.718C142.635 101.776 140.115 103.554 138.113 103.904L138.743 104.912C140.731 104.394 142.775 102.84 143.265 101.454C143.839 102.826 145.869 104.38 147.787 104.926L148.459 103.946ZM148.795 108.328V107.32H137.749V108.328H148.795ZM159.48 99.046H151.192V100.054H158.206V101.356C158.206 101.692 158.206 102.084 158.178 102.504L150.842 102.784L151.024 103.806L158.094 103.47C157.996 104.688 157.828 105.892 157.702 106.494L158.878 106.634C159.228 105.22 159.466 102.672 159.48 100.796V99.046ZM160.908 108.258V107.25H149.862V108.258H160.908ZM172.013 106.634V97.744H170.767V106.634H172.013ZM172.335 109.714V108.692H165.167V106.214H163.935V109.714H172.335ZM169.227 103.778C168.065 104.058 165.279 104.142 163.823 104.142V102.266H168.261V98.612H162.521V99.62H167.029V101.3H162.591V105.15C163.235 105.15 163.865 105.15 164.481 105.136C166.189 105.136 168.191 105.01 169.381 104.772L169.227 103.778ZM185.359 102.63H183.539V100.824H185.359V99.802H183.539V97.744H182.293V105.85H183.539V103.652H185.359V102.63ZM181.033 103.386C179.633 102.91 178.135 101.412 178.135 99.48V98.346H176.875V99.536C176.875 101.454 175.573 103.022 173.837 103.75L174.593 104.716C175.979 104.044 177.169 102.896 177.533 101.608C178.051 102.812 179.199 103.848 180.305 104.352L181.033 103.386ZM184.505 109.098C182.629 108.846 180.459 107.474 180.459 105.738V105.29H179.157V105.738C179.157 107.46 177.029 108.888 175.041 109.112L175.657 110.106C177.701 109.728 179.367 108.356 179.787 107.404C180.249 108.328 182.013 109.742 183.903 110.106L184.505 109.098ZM197.248 103.974V102.966H186.202V103.974H197.248ZM196.324 109.896V108.874H188.694V107.824H195.862V105.01H187.434V106.018H194.63V106.9H187.462V109.896H196.324ZM195.974 100.082C195.974 98.696 194.392 97.912 191.732 97.912C189.1 97.912 187.518 98.696 187.518 100.082C187.518 101.454 189.1 102.238 191.732 102.238C194.392 102.238 195.974 101.454 195.974 100.082ZM191.732 98.906C193.552 98.906 194.7 99.382 194.7 100.082C194.7 100.768 193.552 101.244 191.732 101.244C189.94 101.244 188.806 100.768 188.806 100.082C188.806 99.382 189.94 98.906 191.732 98.906ZM126.167 129.784V128.762H118.537V127.894H125.705V125.136H117.277V126.144H124.473V126.956H117.305V129.784H126.167ZM126.517 121.608C124.851 121.468 122.737 120.712 122.289 119.34H125.985V118.346H117.095V119.34H120.847C120.441 120.726 118.537 121.454 116.661 121.608L117.179 122.574C119.195 122.308 121.043 121.412 121.547 120.264C122.191 121.384 124.081 122.308 125.957 122.574L126.517 121.608ZM127.077 124.254V123.232H116.031V124.254H127.077ZM134.178 125.43H136.936V129.98H138.168V117.744H136.936V121.132H134.374V122.168H136.936V124.38H134.178V125.43ZM134.276 119.046H128.536V120.096H132.946C132.722 122.728 130.958 125.318 128.046 126.69L128.816 127.642C132.148 125.822 134.192 122.938 134.276 119.046ZM150.562 129.084C148.728 128.972 146.908 127.698 146.614 126.508H149.918V125.514H141.882V126.508H145.228C144.934 127.74 143.156 128.972 141.224 129.084L141.854 130.036C143.73 129.798 145.466 128.552 145.9 127.586C146.348 128.538 148.238 129.812 149.932 130.05L150.562 129.084ZM147.23 123.68C145.942 123.358 144.64 122.392 144.402 120.978H147.048V119.984H140.384V120.978H143.044C142.834 122.434 141.574 123.582 140.048 124.044L140.72 124.996C142.064 124.534 143.324 123.4 143.73 122.294C144.276 123.386 145.55 124.324 146.586 124.66L147.23 123.68ZM151.528 121.958V120.936H149.708V117.744H148.476V124.884H149.708V121.958H151.528ZM145.424 119.004V117.996H142.022V119.004H145.424ZM162.409 129.98V117.744H161.163V129.98H162.409ZM158.825 119.046H152.931V120.096H157.481C157.257 122.728 155.269 125.29 152.385 126.676L153.141 127.614C156.487 125.794 158.755 122.938 158.825 119.046ZM178.494 129.98V117.744H177.304V122.798H176.044V118.01H174.854V129.378H176.044V123.82H177.304V129.98H178.494ZM174 124.73C174 123.274 172.908 122.336 171.312 122.336C169.716 122.336 168.61 123.26 168.61 124.73C168.61 126.13 169.716 127.138 171.312 127.138C172.908 127.138 174 126.214 174 124.73ZM172.81 124.73C172.81 125.528 172.18 126.144 171.312 126.144C170.416 126.144 169.8 125.556 169.8 124.73C169.8 123.946 170.416 123.344 171.312 123.344C172.18 123.344 172.81 123.932 172.81 124.73ZM174.252 121.776V120.754H168.19V121.776H174.252ZM172.838 119.676V118.668H169.548V119.676H172.838ZM189.977 125.066V118.598H188.745V120.824H182.851V118.598H181.605V125.066H185.147V127.474H180.275V128.482H191.321V127.474H186.393V125.066H189.977ZM188.745 124.044H182.851V121.832H188.745V124.044ZM202.72 129.98V117.744H201.53V129.98H202.72ZM200.298 129.378V118.024H199.122V122.084H197.19V123.106H199.122V129.378H200.298ZM198.478 126.06C197.092 125.192 195.958 123.344 195.958 120.978V118.906H194.768V120.992C194.768 123.456 193.522 125.458 192.08 126.382L192.85 127.25C194.054 126.424 195.076 124.968 195.37 123.61C195.734 124.94 196.812 126.312 197.722 126.928L198.478 126.06ZM214.582 121.734C214.582 119.83 212.776 118.556 210.018 118.556C207.288 118.556 205.468 119.83 205.468 121.734C205.468 123.638 207.288 124.898 210.018 124.898C212.762 124.898 214.582 123.638 214.582 121.734ZM213.308 121.734C213.308 123.008 211.992 123.876 210.018 123.876C208.044 123.876 206.742 123.008 206.742 121.734C206.742 120.446 208.044 119.578 210.018 119.578C212.006 119.578 213.308 120.446 213.308 121.734ZM215.548 128.426V127.418H212.86V125.248L211.628 125.206V127.418H208.394V125.206L207.148 125.248V127.418H204.502V128.426H215.548ZM216.699 128.734H218.057V127.362H216.699V128.734Z" fill="#EFF0FF" fill-opacity="0.18"/>
<defs>
<filter id="filter0_i_1862_49738" x="0" y="0" width="335" height="195" filterUnits="userSpaceOnUse" color-interpolation-filters="sRGB">
<feFlood flood-opacity="0" result="BackgroundImageFix"/>
<feBlend mode="normal" in="SourceGraphic" in2="BackgroundImageFix" result="shape"/>
<feColorMatrix in="SourceAlpha" type="matrix" values="0 0 0 0 0 0 0 0 0 0 0 0 0 0 0 0 0 0 127 0" result="hardAlpha"/>
<feOffset/>
<feGaussianBlur stdDeviation="6"/>
<feComposite in2="hardAlpha" operator="arithmetic" k2="-1" k3="1"/>
<feColorMatrix type="matrix" values="0 0 0 0 0 0 0 0 0 0 0 0 0 0 0 0 0 0 0.16 0"/>
<feBlend mode="normal" in2="shape" result="effect1_innerShadow_1862_49738"/>
</filter>
</defs>
</svg>
