<svg width="162" height="47" viewBox="0 0 162 47" fill="none" xmlns="http://www.w3.org/2000/svg">
<path fill-rule="evenodd" clip-rule="evenodd" d="M2.75391 0.448242C1.64934 0.448242 0.753906 1.34367 0.753906 2.44824V44.4482C0.753906 45.5528 1.64934 46.4482 2.75391 46.4482H146.754L161.754 31.4482V2.44824C161.754 1.34367 160.858 0.448242 159.754 0.448242H2.75391Z" fill="#E8C15D"/>
<path d="M20.4499 27.7762H21.8739V23.6162L25.3459 17.0242H23.9699L21.2659 22.2882H21.2019L18.4499 17.0242H16.9459L20.4499 23.6162V27.7762ZM29.9348 27.9202C31.2468 27.9202 32.1588 27.5042 32.6228 27.1522V26.1442C31.9028 26.5282 31.2148 26.7522 30.1588 26.7522C28.5748 26.7522 27.6468 26.0802 27.5508 24.1922H32.8628V23.4242C32.8628 20.9282 31.8228 19.6642 29.6468 19.6642C27.7908 19.6642 26.1428 20.9122 26.1428 23.6802V23.9202C26.1428 26.3682 27.4228 27.9202 29.9348 27.9202ZM29.5828 20.7682C30.7828 20.7682 31.4228 21.4242 31.4228 23.0882H27.5508C27.6788 21.2642 28.6868 20.7682 29.5828 20.7682ZM34.577 27.7762H35.953V16.3202H34.577V27.7762ZM38.202 27.7762H39.578V16.3202H38.202V27.7762ZM44.915 27.9202C47.091 27.9202 48.563 26.4002 48.563 23.9042V23.6482C48.563 21.1522 47.203 19.6642 44.931 19.6642C42.755 19.6642 41.299 21.2002 41.299 23.6962V23.9682C41.299 26.4482 42.627 27.9202 44.915 27.9202ZM44.947 26.8002C43.715 26.8002 42.707 26.1442 42.707 24.0002V23.5522C42.707 21.7762 43.507 20.7842 44.899 20.7842C46.131 20.7842 47.139 21.4722 47.139 23.6162V24.0482C47.139 25.8242 46.339 26.8002 44.947 26.8002ZM51.7525 27.7762H53.1445L54.9205 21.9202H54.9845L56.7605 27.7762H58.1205L60.3765 19.8242H59.0645L57.5125 26.0322H57.4485L55.5925 19.8242H54.4085L52.5685 26.0322H52.5205L50.9525 19.8242H49.4965L51.7525 27.7762Z" fill="white" fill-opacity="0.93"/>
<path d="M146.754 46.4482V33.4482C146.754 32.3437 147.649 31.4482 148.754 31.4482H161.754L146.754 46.4482Z" fill="white" fill-opacity="0.3"/>
</svg>
