<svg width="160" height="160" viewBox="0 0 160 160" fill="none" xmlns="http://www.w3.org/2000/svg">
<path d="M0 2C0 0.895429 0.895431 0 2 0H158C159.105 0 160 0.895431 160 2V158C160 159.105 159.105 160 158 160H2C0.895429 160 0 159.105 0 158V2Z" fill="#292C33"/>
<mask id="path-3-inside-1" fill="white">
<path fill-rule="evenodd" clip-rule="evenodd" d="M107 53H53V107H99.0588L107 99.0588V53Z"/>
</mask>
<path d="M53 53V50H50V53H53ZM107 53H110V50H107V53ZM53 107H50V110H53V107ZM99.0588 107V110H100.301L101.18 109.121L99.0588 107ZM107 99.0588L109.121 101.18L110 100.301V99.0588H107ZM53 56H107V50H53V56ZM56 107V53H50V107H56ZM99.0588 104H53V110H99.0588V104ZM104.879 96.9375L96.9375 104.879L101.18 109.121L109.121 101.18L104.879 96.9375ZM104 53V99.0588H110V53H104Z" fill="#EFF0FF" fill-opacity="0.18" mask="url(#path-3-inside-1)"/>
<path d="M72.4557 64.9116H64.9116V72.4557" stroke="#EFF0FF" stroke-opacity="0.18" stroke-width="3"/>
<path d="M64.9116 87.5438L64.9116 95.0879L72.4557 95.0879" stroke="#EFF0FF" stroke-opacity="0.18" stroke-width="3"/>
<path d="M95.0879 72.4557L95.0879 64.9116L87.5438 64.9116" stroke="#EFF0FF" stroke-opacity="0.18" stroke-width="3"/>
<path d="M87.5438 95.0879L95.0879 95.0879L95.0879 87.5438" stroke="#EFF0FF" stroke-opacity="0.18" stroke-width="3"/>
<path d="M2 0.5H158V-0.5H2V0.5ZM159.5 2V158H160.5V2H159.5ZM158 159.5H2V160.5H158V159.5ZM0.5 158V2H-0.5V158H0.5ZM2 159.5C1.17157 159.5 0.5 158.828 0.5 158H-0.5C-0.5 159.381 0.619286 160.5 2 160.5V159.5ZM159.5 158C159.5 158.828 158.828 159.5 158 159.5V160.5C159.381 160.5 160.5 159.381 160.5 158H159.5ZM158 0.5C158.828 0.5 159.5 1.17157 159.5 2H160.5C160.5 0.619289 159.381 -0.5 158 -0.5V0.5ZM2 -0.5C0.619289 -0.5 -0.5 0.619286 -0.5 2H0.5C0.5 1.17157 1.17157 0.5 2 0.5V-0.5Z" fill="#EFF0FF" fill-opacity="0.18"/>
</svg>
