<svg width="375" height="812" viewBox="0 0 375 812" fill="none" xmlns="http://www.w3.org/2000/svg">
<rect width="375" height="812" fill="#1B1D21"/>
<path d="M60.04 187.112V184.88H40.72V187.112H60.04ZM59.632 178.352C56.368 177.8 51.856 174.992 51.856 171.224V169.808H48.928V171.224C48.928 175.016 44.68 177.848 41.176 178.352L42.496 180.632C45.448 179.984 49.264 177.704 50.368 174.824C51.592 177.632 55.288 179.864 58.216 180.536L59.632 178.352ZM78.5496 170.84H63.7896V173.048H75.7416C75.7416 174.056 75.6936 175.28 75.6216 176.552C71.4456 176.744 67.2456 176.912 63.0216 177.08L63.3816 179.312C67.4136 179.12 71.4696 178.88 75.5016 178.688C75.3336 180.536 75.1176 182.312 74.8056 183.584C75.6936 183.656 76.6296 183.728 77.4936 183.824C78.1176 181.304 78.5496 176.144 78.5496 170.84ZM80.8056 187.064V184.856H61.4856V187.064H80.8056ZM99.9153 184.016V168.512H97.1073V184.016H99.9153ZM100.467 189.44V187.208H88.4913V183.032H85.6593V189.44H100.467ZM94.8033 178.64C93.1713 179.096 88.8033 179.288 86.1393 179.288V176.648H92.9793V170H83.2833V172.232H90.1473V174.536H83.3313V181.496C84.2913 181.496 85.2273 181.52 86.2113 181.52C89.0913 181.52 93.2673 181.232 95.0673 180.776L94.8033 178.64ZM122.769 176.72H119.745V174.104H122.769V171.8H119.745V168.512H116.913V182.672H119.745V179.024H122.769V176.72ZM115.617 178.208C113.097 177.392 110.625 174.8 110.625 171.512V169.568H107.745V171.632C107.745 174.872 105.657 177.584 102.561 178.712L104.241 180.944C106.233 180.248 108.537 178.088 109.209 175.904C110.121 177.896 112.353 179.768 113.985 180.392L115.617 178.208ZM121.233 187.928C117.633 187.352 114.465 185.144 114.465 182.216V181.496H111.537V182.216C111.537 185.144 108.393 187.424 104.673 187.88L105.969 190.136C108.993 189.632 112.017 187.616 112.953 185.6C113.985 187.592 117.105 189.656 119.889 190.136L121.233 187.928ZM58.552 219.624C58.552 216.96 55.792 215.328 51.064 215.328C46.336 215.328 43.576 216.96 43.576 219.624C43.576 222.216 46.336 223.848 51.064 223.848C55.792 223.848 58.552 222.216 58.552 219.624ZM41.464 206.328H45.712C45.544 209.376 43.576 211.632 40.576 212.712C41.152 213.432 41.68 214.152 42.256 214.896C44.32 214.176 46.576 212.16 47.224 210.096C48.136 212.04 50.224 213.648 51.856 214.272C52.36 213.528 52.888 212.808 53.368 212.064C51.04 211.296 48.88 209.304 48.664 206.328H52.72V204.024H41.464V206.328ZM52.384 209.88H55.6V215.232H58.408V202.512H55.6V207.624H52.384V209.88ZM51.064 217.584C54.016 217.584 55.696 218.328 55.696 219.624C55.696 220.872 54.016 221.616 51.064 221.616C48.16 221.616 46.456 220.872 46.456 219.624C46.456 218.328 48.16 217.584 51.064 217.584ZM76.3656 202.512V223.896H79.1496V202.512H76.3656ZM74.4936 216.072C71.7576 216.576 67.5096 216.696 65.4696 216.696V212.352H72.4536V204.336H62.5896V206.568H69.6216V210.12H62.6856V219H64.9416C68.5656 219 72.5496 218.76 74.8056 218.304L74.4936 216.072ZM102.051 213.048V210.72H98.9553V202.512H96.1713V223.896H98.9553V213.048H102.051ZM93.3393 204.696H83.3553V207.024H90.2913C89.9073 211.296 86.7153 215.784 82.0593 217.92L83.7633 220.032C90.3153 216.48 93.1473 211.152 93.3393 204.696ZM109.466 211.632C109.466 216.12 111.506 219.24 114.986 219.24C118.178 219.24 120.146 216.6 120.458 212.736H124.202V223.896H127.01V202.512H124.202V210.36H120.434C120.098 206.544 118.154 203.976 114.986 203.976C111.506 203.976 109.466 207.12 109.466 211.632ZM117.818 211.632C117.818 214.992 116.642 216.984 114.986 216.984C113.378 216.984 112.202 214.992 112.202 211.632C112.202 208.248 113.378 206.232 114.986 206.232C116.642 206.232 117.818 208.248 117.818 211.632ZM147.751 223.632V215.28H144.967V217.296H136.495V215.328H133.687V223.632H147.751ZM141.319 213.36C141.223 212.664 141.103 211.968 140.959 211.248C139.327 211.704 136.303 211.704 133.687 211.704V209.496H140.263V203.424H130.855V205.632H137.455V207.408H130.855V213.888C131.815 213.888 132.775 213.912 133.711 213.912C136.567 213.912 139.495 213.816 141.319 213.36ZM147.751 214.272V202.512H144.967V205.104H141.775V207.432H144.967V209.352H141.775V211.632H144.967V214.272H147.751ZM144.967 221.4H136.495V219.504H144.967V221.4ZM167.557 202.512H164.749V223.896H167.557V212.904H170.629V210.576H167.557V202.512ZM154.453 216.624V206.736H161.437V204.48H151.669V218.928H153.733C157.909 218.928 161.149 218.736 163.213 218.208C163.093 217.488 163.021 216.72 162.901 215.976C160.477 216.528 157.501 216.624 154.453 216.624ZM182.37 214.32V204.312H172.458V214.32H182.37ZM186.498 208.08V210.576H183.522V212.784H186.498V218.016H189.282V202.512H186.498V205.872H183.522V208.08H186.498ZM189.714 223.32V221.088H178.002V216.696H175.218V223.32H189.714ZM179.586 212.136H175.242V206.472H179.586V212.136Z" fill="white" fill-opacity="0.93"/>
<path fill-rule="evenodd" clip-rule="evenodd" d="M175 240H40V280H166.5L175 271.5V240Z" fill="white"/>
<path d="M62.8498 265.126C62.7458 264.242 62.6678 263.358 62.5898 262.448C61.2118 262.786 58.6898 262.942 57.2078 262.942H56.6618V258.99H61.4718V250.098H53.3598V252.932H58.0658V256.104H53.2558V265.75C54.0878 265.75 54.9198 265.776 55.8038 265.776C58.2478 265.776 61.2378 265.516 62.8498 265.126ZM72.3398 271.054V247.888H69.0638V271.054H72.3398ZM67.7638 269.988V248.304H64.5658V256.156H62.3818V258.964H64.5658V269.988H67.7638ZM93.7959 271.054V247.888H90.3639V271.054H93.7959ZM75.1799 257.742C75.1799 262.526 77.4419 266.036 81.2379 266.036C85.0859 266.036 87.3479 262.5 87.3479 257.742C87.3479 252.88 85.0859 249.37 81.2379 249.37C77.4419 249.37 75.1799 252.88 75.1799 257.742ZM84.1239 257.742C84.1239 261.226 82.9019 263.046 81.2379 263.046C79.6779 263.046 78.4559 261.226 78.4559 257.742C78.4559 254.206 79.6779 252.412 81.2379 252.412C82.9019 252.412 84.1239 254.206 84.1239 257.742ZM117.462 260.212V257.508H96.532V260.212H117.462ZM115.538 270.95V268.168H102.46V267.31H114.836V261.226H99.054V263.904H111.43V264.918H99.028V270.95H115.538ZM114.654 256.416V248.46H111.196V249.786H102.824V248.46H99.34V256.416H114.654ZM111.196 253.686H102.824V252.438H111.196V253.686ZM137.722 271.054V247.888H134.264V256.13H131.092V259.016H134.264V271.054H137.722ZM131.17 262.266C128.492 262.734 124.722 262.994 122.642 262.89V258.548H129.74V249.812H119.132V252.49H126.282V255.844H119.158V265.698C119.886 265.724 120.718 265.75 121.472 265.75C125.294 265.75 129.142 265.568 131.456 265.048L131.17 262.266ZM156.24 247.888V271.054H159.698V247.888H156.24ZM154.394 262.24C151.742 262.864 147.504 262.994 145.294 262.916V258.548H152.418V249.812H141.784V252.49H148.96V255.844H141.836V265.724C142.408 265.724 143.37 265.75 144.15 265.75C147.972 265.75 152.444 265.542 154.758 264.996L154.394 262.24Z" fill="#1B1D21"/>
<path d="M62.8498 265.126L62.8733 265.223L62.9594 265.202L62.9491 265.114L62.8498 265.126ZM62.5898 262.448L62.6894 262.439L62.6794 262.323L62.5659 262.351L62.5898 262.448ZM56.6618 262.942H56.5618V263.042H56.6618V262.942ZM56.6618 258.99V258.89H56.5618V258.99H56.6618ZM61.4718 258.99V259.09H61.5718V258.99H61.4718ZM61.4718 250.098H61.5718V249.998H61.4718V250.098ZM53.3598 250.098V249.998H53.2598V250.098H53.3598ZM53.3598 252.932H53.2598V253.032H53.3598V252.932ZM58.0658 252.932H58.1658V252.832H58.0658V252.932ZM58.0658 256.104V256.204H58.1658V256.104H58.0658ZM53.2558 256.104V256.004H53.1558V256.104H53.2558ZM53.2558 265.75H53.1558V265.85H53.2558V265.75ZM72.3398 271.054V271.154H72.4398V271.054H72.3398ZM72.3398 247.888H72.4398V247.788H72.3398V247.888ZM69.0638 247.888V247.788H68.9638V247.888H69.0638ZM69.0638 271.054H68.9638V271.154H69.0638V271.054ZM67.7638 269.988V270.088H67.8638V269.988H67.7638ZM67.7638 248.304H67.8638V248.204H67.7638V248.304ZM64.5658 248.304V248.204H64.4658V248.304H64.5658ZM64.5658 256.156V256.256H64.6658V256.156H64.5658ZM62.3818 256.156V256.056H62.2818V256.156H62.3818ZM62.3818 258.964H62.2818V259.064H62.3818V258.964ZM64.5658 258.964H64.6658V258.864H64.5658V258.964ZM64.5658 269.988H64.4658V270.088H64.5658V269.988ZM62.9491 265.114C62.8453 264.232 62.7674 263.349 62.6894 262.439L62.4901 262.457C62.5681 263.367 62.6462 264.252 62.7505 265.138L62.9491 265.114ZM62.5659 262.351C61.1999 262.686 58.6877 262.842 57.2078 262.842V263.042C58.6919 263.042 61.2236 262.886 62.6136 262.545L62.5659 262.351ZM57.2078 262.842H56.6618V263.042H57.2078V262.842ZM56.7618 262.942V258.99H56.5618V262.942H56.7618ZM56.6618 259.09H61.4718V258.89H56.6618V259.09ZM61.5718 258.99V250.098H61.3718V258.99H61.5718ZM61.4718 249.998H53.3598V250.198H61.4718V249.998ZM53.2598 250.098V252.932H53.4598V250.098H53.2598ZM53.3598 253.032H58.0658V252.832H53.3598V253.032ZM57.9658 252.932V256.104H58.1658V252.932H57.9658ZM58.0658 256.004H53.2558V256.204H58.0658V256.004ZM53.1558 256.104V265.75H53.3558V256.104H53.1558ZM53.2558 265.85C53.6709 265.85 54.0861 265.856 54.5087 265.863C54.9311 265.869 55.3609 265.876 55.8038 265.876V265.676C55.3626 265.676 54.9344 265.67 54.5118 265.663C54.0895 265.657 53.6727 265.65 53.2558 265.65V265.85ZM55.8038 265.876C58.2514 265.876 61.2503 265.616 62.8733 265.223L62.8263 265.029C61.2252 265.416 58.2441 265.676 55.8038 265.676V265.876ZM72.4398 271.054V247.888H72.2398V271.054H72.4398ZM72.3398 247.788H69.0638V247.988H72.3398V247.788ZM68.9638 247.888V271.054H69.1638V247.888H68.9638ZM69.0638 271.154H72.3398V270.954H69.0638V271.154ZM67.8638 269.988V248.304H67.6638V269.988H67.8638ZM67.7638 248.204H64.5658V248.404H67.7638V248.204ZM64.4658 248.304V256.156H64.6658V248.304H64.4658ZM64.5658 256.056H62.3818V256.256H64.5658V256.056ZM62.2818 256.156V258.964H62.4818V256.156H62.2818ZM62.3818 259.064H64.5658V258.864H62.3818V259.064ZM64.4658 258.964V269.988H64.6658V258.964H64.4658ZM64.5658 270.088H67.7638V269.888H64.5658V270.088ZM93.7959 271.054V271.154H93.8959V271.054H93.7959ZM93.7959 247.888H93.8959V247.788H93.7959V247.888ZM90.3639 247.888V247.788H90.2639V247.888H90.3639ZM90.3639 271.054H90.2639V271.154H90.3639V271.054ZM93.8959 271.054V247.888H93.6959V271.054H93.8959ZM93.7959 247.788H90.3639V247.988H93.7959V247.788ZM90.2639 247.888V271.054H90.4639V247.888H90.2639ZM90.3639 271.154H93.7959V270.954H90.3639V271.154ZM75.0799 257.742C75.0799 260.148 75.6485 262.244 76.7036 263.741C77.7608 265.24 79.3047 266.136 81.2379 266.136V265.936C79.375 265.936 77.8899 265.077 76.8671 263.625C75.8422 262.171 75.2799 260.12 75.2799 257.742H75.0799ZM81.2379 266.136C83.1968 266.136 84.7537 265.234 85.8175 263.731C86.8791 262.231 87.4479 260.135 87.4479 257.742H87.2479C87.2479 260.107 86.6856 262.158 85.6542 263.615C84.625 265.07 83.1269 265.936 81.2379 265.936V266.136ZM87.4479 257.742C87.4479 255.297 86.8793 253.182 85.8176 251.675C84.7537 250.165 83.1966 249.27 81.2379 249.27V249.47C83.1271 249.47 84.625 250.33 85.6541 251.79C86.6854 253.254 87.2479 255.325 87.2479 257.742H87.4479ZM81.2379 249.27C79.3046 249.27 77.7606 250.166 76.7034 251.675C75.6484 253.182 75.0799 255.297 75.0799 257.742H75.2799C75.2799 255.325 75.8423 253.254 76.8673 251.79C77.8901 250.329 79.3751 249.47 81.2379 249.47V249.27ZM84.0239 257.742C84.0239 259.474 83.7197 260.781 83.2182 261.651C82.7186 262.517 82.0268 262.946 81.2379 262.946V263.146C82.1129 263.146 82.8641 262.665 83.3915 261.75C83.917 260.839 84.2239 259.494 84.2239 257.742H84.0239ZM81.2379 262.946C80.5033 262.946 79.8369 262.52 79.349 261.652C78.8599 260.781 78.5559 259.474 78.5559 257.742H78.3559C78.3559 259.494 78.6628 260.839 79.1747 261.749C79.6878 262.662 80.4124 263.146 81.2379 263.146V262.946ZM78.5559 257.742C78.5559 255.984 78.86 254.67 79.349 253.8C79.8366 252.932 80.5028 252.512 81.2379 252.512V252.312C80.4129 252.312 79.6881 252.789 79.1747 253.702C78.6627 254.613 78.3559 255.964 78.3559 257.742H78.5559ZM81.2379 252.512C82.0273 252.512 82.7189 252.935 83.2182 253.801C83.7197 254.671 84.0239 255.983 84.0239 257.742H84.2239C84.2239 255.965 83.9171 254.612 83.3915 253.701C82.8638 252.786 82.1124 252.312 81.2379 252.312V252.512ZM117.462 260.212V260.312H117.562V260.212H117.462ZM117.462 257.508H117.562V257.408H117.462V257.508ZM96.532 257.508V257.408H96.432V257.508H96.532ZM96.532 260.212H96.432V260.312H96.532V260.212ZM115.538 270.95V271.05H115.638V270.95H115.538ZM115.538 268.168H115.638V268.068H115.538V268.168ZM102.46 268.168H102.36V268.268H102.46V268.168ZM102.46 267.31V267.21H102.36V267.31H102.46ZM114.836 267.31V267.41H114.936V267.31H114.836ZM114.836 261.226H114.936V261.126H114.836V261.226ZM99.054 261.226V261.126H98.954V261.226H99.054ZM99.054 263.904H98.954V264.004H99.054V263.904ZM111.43 263.904H111.53V263.804H111.43V263.904ZM111.43 264.918V265.018H111.53V264.918H111.43ZM99.028 264.918V264.818H98.928V264.918H99.028ZM99.028 270.95H98.928V271.05H99.028V270.95ZM114.654 256.416V256.516H114.754V256.416H114.654ZM114.654 248.46H114.754V248.36H114.654V248.46ZM111.196 248.46V248.36H111.096V248.46H111.196ZM111.196 249.786V249.886H111.296V249.786H111.196ZM102.824 249.786H102.724V249.886H102.824V249.786ZM102.824 248.46H102.924V248.36H102.824V248.46ZM99.34 248.46V248.36H99.24V248.46H99.34ZM99.34 256.416H99.24V256.516H99.34V256.416ZM111.196 253.686V253.786H111.296V253.686H111.196ZM102.824 253.686H102.724V253.786H102.824V253.686ZM102.824 252.438V252.338H102.724V252.438H102.824ZM111.196 252.438H111.296V252.338H111.196V252.438ZM117.562 260.212V257.508H117.362V260.212H117.562ZM117.462 257.408H96.532V257.608H117.462V257.408ZM96.432 257.508V260.212H96.632V257.508H96.432ZM96.532 260.312H117.462V260.112H96.532V260.312ZM115.638 270.95V268.168H115.438V270.95H115.638ZM115.538 268.068H102.46V268.268H115.538V268.068ZM102.56 268.168V267.31H102.36V268.168H102.56ZM102.46 267.41H114.836V267.21H102.46V267.41ZM114.936 267.31V261.226H114.736V267.31H114.936ZM114.836 261.126H99.054V261.326H114.836V261.126ZM98.954 261.226V263.904H99.154V261.226H98.954ZM99.054 264.004H111.43V263.804H99.054V264.004ZM111.33 263.904V264.918H111.53V263.904H111.33ZM111.43 264.818H99.028V265.018H111.43V264.818ZM98.928 264.918V270.95H99.128V264.918H98.928ZM99.028 271.05H115.538V270.85H99.028V271.05ZM114.754 256.416V248.46H114.554V256.416H114.754ZM114.654 248.36H111.196V248.56H114.654V248.36ZM111.096 248.46V249.786H111.296V248.46H111.096ZM111.196 249.686H102.824V249.886H111.196V249.686ZM102.924 249.786V248.46H102.724V249.786H102.924ZM102.824 248.36H99.34V248.56H102.824V248.36ZM99.24 248.46V256.416H99.44V248.46H99.24ZM99.34 256.516H114.654V256.316H99.34V256.516ZM111.196 253.586H102.824V253.786H111.196V253.586ZM102.924 253.686V252.438H102.724V253.686H102.924ZM102.824 252.538H111.196V252.338H102.824V252.538ZM111.096 252.438V253.686H111.296V252.438H111.096ZM137.722 271.054V271.154H137.822V271.054H137.722ZM137.722 247.888H137.822V247.788H137.722V247.888ZM134.264 247.888V247.788H134.164V247.888H134.264ZM134.264 256.13V256.23H134.364V256.13H134.264ZM131.092 256.13V256.03H130.992V256.13H131.092ZM131.092 259.016H130.992V259.116H131.092V259.016ZM134.264 259.016H134.364V258.916H134.264V259.016ZM134.264 271.054H134.164V271.154H134.264V271.054ZM131.17 262.266L131.27 262.256L131.259 262.149L131.153 262.167L131.17 262.266ZM122.642 262.89H122.542V262.985L122.637 262.99L122.642 262.89ZM122.642 258.548V258.448H122.542V258.548H122.642ZM129.74 258.548V258.648H129.84V258.548H129.74ZM129.74 249.812H129.84V249.712H129.74V249.812ZM119.132 249.812V249.712H119.032V249.812H119.132ZM119.132 252.49H119.032V252.59H119.132V252.49ZM126.282 252.49H126.382V252.39H126.282V252.49ZM126.282 255.844V255.944H126.382V255.844H126.282ZM119.158 255.844V255.744H119.058V255.844H119.158ZM119.158 265.698H119.058V265.794L119.154 265.798L119.158 265.698ZM131.456 265.048L131.478 265.146L131.565 265.126L131.556 265.038L131.456 265.048ZM137.822 271.054V247.888H137.622V271.054H137.822ZM137.722 247.788H134.264V247.988H137.722V247.788ZM134.164 247.888V256.13H134.364V247.888H134.164ZM134.264 256.03H131.092V256.23H134.264V256.03ZM130.992 256.13V259.016H131.192V256.13H130.992ZM131.092 259.116H134.264V258.916H131.092V259.116ZM134.164 259.016V271.054H134.364V259.016H134.164ZM134.264 271.154H137.722V270.954H134.264V271.154ZM131.153 262.167C128.481 262.634 124.718 262.894 122.647 262.79L122.637 262.99C124.726 263.094 128.503 262.834 131.187 262.365L131.153 262.167ZM122.742 262.89V258.548H122.542V262.89H122.742ZM122.642 258.648H129.74V258.448H122.642V258.648ZM129.84 258.548V249.812H129.64V258.548H129.84ZM129.74 249.712H119.132V249.912H129.74V249.712ZM119.032 249.812V252.49H119.232V249.812H119.032ZM119.132 252.59H126.282V252.39H119.132V252.59ZM126.182 252.49V255.844H126.382V252.49H126.182ZM126.282 255.744H119.158V255.944H126.282V255.744ZM119.058 255.844V265.698H119.258V255.844H119.058ZM119.154 265.798C119.883 265.824 120.716 265.85 121.472 265.85V265.65C120.72 265.65 119.89 265.624 119.162 265.598L119.154 265.798ZM121.472 265.85C125.294 265.85 129.152 265.668 131.478 265.146L131.434 264.95C129.132 265.468 125.294 265.65 121.472 265.65V265.85ZM131.556 265.038L131.27 262.256L131.071 262.276L131.357 265.058L131.556 265.038ZM156.24 247.888V247.788H156.14V247.888H156.24ZM156.24 271.054H156.14V271.154H156.24V271.054ZM159.698 271.054V271.154H159.798V271.054H159.698ZM159.698 247.888H159.798V247.788H159.698V247.888ZM154.394 262.24L154.493 262.227L154.479 262.117L154.371 262.143L154.394 262.24ZM145.294 262.916H145.194V263.013L145.291 263.016L145.294 262.916ZM145.294 258.548V258.448H145.194V258.548H145.294ZM152.418 258.548V258.648H152.518V258.548H152.418ZM152.418 249.812H152.518V249.712H152.418V249.812ZM141.784 249.812V249.712H141.684V249.812H141.784ZM141.784 252.49H141.684V252.59H141.784V252.49ZM148.96 252.49H149.06V252.39H148.96V252.49ZM148.96 255.844V255.944H149.06V255.844H148.96ZM141.836 255.844V255.744H141.736V255.844H141.836ZM141.836 265.724H141.736V265.824H141.836V265.724ZM154.758 264.996L154.781 265.093L154.869 265.073L154.857 264.983L154.758 264.996ZM156.14 247.888V271.054H156.34V247.888H156.14ZM156.24 271.154H159.698V270.954H156.24V271.154ZM159.798 271.054V247.888H159.598V271.054H159.798ZM159.698 247.788H156.24V247.988H159.698V247.788ZM154.371 262.143C151.732 262.764 147.505 262.894 145.298 262.816L145.291 263.016C147.504 263.094 151.752 262.964 154.417 262.337L154.371 262.143ZM145.394 262.916V258.548H145.194V262.916H145.394ZM145.294 258.648H152.418V258.448H145.294V258.648ZM152.518 258.548V249.812H152.318V258.548H152.518ZM152.418 249.712H141.784V249.912H152.418V249.712ZM141.684 249.812V252.49H141.884V249.812H141.684ZM141.784 252.59H148.96V252.39H141.784V252.59ZM148.86 252.49V255.844H149.06V252.49H148.86ZM148.96 255.744H141.836V255.944H148.96V255.744ZM141.736 255.844V265.724H141.936V255.844H141.736ZM141.836 265.824C142.121 265.824 142.504 265.83 142.914 265.837C143.323 265.843 143.759 265.85 144.15 265.85V265.65C143.761 265.65 143.326 265.644 142.917 265.637C142.508 265.631 142.123 265.624 141.836 265.624V265.824ZM144.15 265.85C147.971 265.85 152.454 265.642 154.781 265.093L154.735 264.899C152.434 265.442 147.973 265.65 144.15 265.65V265.85ZM154.857 264.983L154.493 262.227L154.295 262.253L154.659 265.009L154.857 264.983Z" fill="#1B1D21"/>
<path d="M145 751.064C145 755.216 147.688 757.976 151.048 757.976C153.16 757.976 154.672 756.968 155.464 755.816V757.76H158.848V744.464H155.464V746.36C154.672 745.256 153.208 744.248 151.072 744.248C147.688 744.248 145 746.912 145 751.064ZM155.464 751.112C155.464 753.632 153.784 755.024 151.936 755.024C150.136 755.024 148.432 753.584 148.432 751.064C148.432 748.544 150.136 747.2 151.936 747.2C153.784 747.2 155.464 748.592 155.464 751.112Z" fill="white"/>
<path d="M166.21 746.408V740H162.85V757.76H166.21V755.864C167.026 757.016 168.514 757.976 170.602 757.976C174.01 757.976 176.674 755.216 176.674 751.064C176.674 746.912 174.01 744.248 170.602 744.248C168.586 744.248 167.026 745.184 166.21 746.408ZM173.242 751.064C173.242 753.584 171.538 755.024 169.714 755.024C167.914 755.024 166.21 753.632 166.21 751.112C166.21 748.592 167.914 747.2 169.714 747.2C171.538 747.2 173.242 748.544 173.242 751.064Z" fill="white"/>
<path d="M185.547 747.008C187.275 747.008 188.667 748.112 188.715 749.864H182.403C182.667 748.04 183.939 747.008 185.547 747.008ZM191.859 753.584H188.235C187.803 754.472 187.011 755.192 185.571 755.192C183.891 755.192 182.547 754.088 182.379 752.12H192.099C192.171 751.688 192.195 751.256 192.195 750.824C192.195 746.864 189.483 744.248 185.643 744.248C181.707 744.248 178.971 746.912 178.971 751.112C178.971 755.288 181.779 757.976 185.643 757.976C188.931 757.976 191.139 756.032 191.859 753.584Z" fill="white"/>
<path d="M195.368 757.76H198.728V740H195.368V757.76Z" fill="white"/>
<path d="M201.903 751.064C201.903 755.216 204.591 757.976 207.951 757.976C210.063 757.976 211.575 756.968 212.367 755.816V757.76H215.751V744.464H212.367V746.36C211.575 745.256 210.111 744.248 207.975 744.248C204.591 744.248 201.903 746.912 201.903 751.064ZM212.367 751.112C212.367 753.632 210.687 755.024 208.839 755.024C207.039 755.024 205.335 753.584 205.335 751.064C205.335 748.544 207.039 747.2 208.839 747.2C210.687 747.2 212.367 748.592 212.367 751.112Z" fill="white"/>
<path d="M223.113 751.136C223.113 748.568 224.313 747.8 226.305 747.8H227.193V744.272C225.345 744.272 223.953 745.16 223.113 746.528V744.464H219.753V757.76H223.113V751.136Z" fill="white"/>
<path d="M235.84 753.752L232.408 744.464H228.64L233.968 757.424L231.088 764.048H234.664L242.896 744.464H239.32L235.84 753.752Z" fill="white"/>
<path d="M133 740H137V758L133 754V740Z" fill="white" fill-opacity="0.8"/>
<path d="M143 754L143 758L137 758L133 754L143 754Z" fill="white"/>
<rect width="375" height="44" fill="#1B1D21"/>
<g clip-path="url(#clip0)">
<path opacity="0.35" d="M336.5 19.9997C336.5 18.8031 337.47 17.833 338.667 17.833H355.333C356.53 17.833 357.5 18.8031 357.5 19.9997V25.9997C357.5 27.1963 356.53 28.1663 355.333 28.1663H338.667C337.47 28.1663 336.5 27.1963 336.5 25.9997V19.9997Z" stroke="white"/>
<path opacity="0.4" d="M359 20.9995V24.9995C359.805 24.6607 360.328 23.8726 360.328 22.9995C360.328 22.1264 359.805 21.3383 359 20.9995Z" fill="white"/>
<path d="M338 20.6663C338 19.93 338.597 19.333 339.333 19.333H354.667C355.403 19.333 356 19.93 356 20.6663V25.333C356 26.0694 355.403 26.6663 354.667 26.6663H339.333C338.597 26.6663 338 26.0694 338 25.333V20.6663Z" fill="white"/>
<path fill-rule="evenodd" clip-rule="evenodd" d="M323.33 19.6079C325.546 19.608 327.677 20.4594 329.283 21.9862C329.404 22.1041 329.597 22.1026 329.716 21.9829L330.872 20.8162C330.933 20.7555 330.966 20.6733 330.966 20.5877C330.965 20.5021 330.931 20.4202 330.87 20.3602C326.655 16.3207 320.005 16.3207 315.79 20.3602C315.729 20.4202 315.694 20.502 315.693 20.5876C315.693 20.6732 315.726 20.7555 315.787 20.8162L316.943 21.9829C317.062 22.1028 317.255 22.1043 317.376 21.9862C318.982 20.4593 321.114 19.6079 323.33 19.6079ZM323.33 23.4036C324.547 23.4035 325.721 23.856 326.624 24.6732C326.746 24.7892 326.938 24.7867 327.057 24.6676L328.212 23.5009C328.273 23.4397 328.307 23.3567 328.306 23.2704C328.305 23.1842 328.269 23.1018 328.207 23.0419C325.459 20.4855 321.203 20.4855 318.455 23.0419C318.393 23.1018 318.357 23.1842 318.357 23.2705C318.356 23.3568 318.39 23.4398 318.451 23.5009L319.605 24.6676C319.724 24.7867 319.916 24.7892 320.038 24.6732C320.94 23.8566 322.113 23.4041 323.33 23.4036ZM325.643 25.9574C325.645 26.0439 325.611 26.1273 325.549 26.1879L323.552 28.2036C323.493 28.2628 323.413 28.2961 323.33 28.2961C323.247 28.2961 323.167 28.2628 323.108 28.2036L321.111 26.1879C321.049 26.1272 321.015 26.0438 321.017 25.9573C321.019 25.8708 321.056 25.7889 321.12 25.7309C322.396 24.652 324.264 24.652 325.54 25.7309C325.604 25.7889 325.641 25.8709 325.643 25.9574Z" fill="white"/>
<path fill-rule="evenodd" clip-rule="evenodd" d="M309.667 17.6665H308.667C308.114 17.6665 307.667 18.1142 307.667 18.6665V27.3332C307.667 27.8855 308.114 28.3332 308.667 28.3332H309.667C310.219 28.3332 310.667 27.8855 310.667 27.3332V18.6665C310.667 18.1142 310.219 17.6665 309.667 17.6665ZM304 19.9998H305C305.552 19.9998 306 20.4476 306 20.9998V27.3332C306 27.8855 305.552 28.3332 305 28.3332H304C303.448 28.3332 303 27.8855 303 27.3332V20.9998C303 20.4476 303.448 19.9998 304 19.9998ZM300.333 22.3332H299.333C298.781 22.3332 298.333 22.7809 298.333 23.3332V27.3332C298.333 27.8855 298.781 28.3332 299.333 28.3332H300.333C300.885 28.3332 301.333 27.8855 301.333 27.3332V23.3332C301.333 22.7809 300.885 22.3332 300.333 22.3332ZM295.667 24.3332H294.667C294.114 24.3332 293.667 24.7809 293.667 25.3332V27.3332C293.667 27.8855 294.114 28.3332 294.667 28.3332H295.667C296.219 28.3332 296.667 27.8855 296.667 27.3332V25.3332C296.667 24.7809 296.219 24.3332 295.667 24.3332Z" fill="white"/>
<path d="M37.3208 28.2563C40.0088 28.2563 41.6055 26.1543 41.6055 22.5947C41.6055 21.2544 41.3491 20.1265 40.8584 19.2549C40.1479 17.8999 38.9248 17.1675 37.3794 17.1675C35.0796 17.1675 33.4536 18.7129 33.4536 20.8809C33.4536 22.917 34.9185 24.3965 36.9326 24.3965C38.1704 24.3965 39.1738 23.8179 39.6719 22.8145H39.6938C39.6938 22.8145 39.7231 22.8145 39.7305 22.8145C39.7451 22.8145 39.7964 22.8145 39.7964 22.8145C39.7964 25.2314 38.8809 26.6743 37.3354 26.6743C36.4272 26.6743 35.7241 26.1763 35.4824 25.3779H33.6001C33.915 27.1138 35.3872 28.2563 37.3208 28.2563ZM37.3867 22.895C36.1709 22.895 35.3066 22.0308 35.3066 20.8223C35.3066 19.6431 36.2148 18.7422 37.394 18.7422C38.5732 18.7422 39.4814 19.6577 39.4814 20.8516C39.4814 22.0308 38.5952 22.895 37.3867 22.895Z" fill="white"/>
<path d="M44.6966 28.1538C45.3924 28.1538 45.8685 27.6558 45.8685 26.9966C45.8685 26.3301 45.3924 25.8394 44.6966 25.8394C44.0081 25.8394 43.5247 26.3301 43.5247 26.9966C43.5247 27.6558 44.0081 28.1538 44.6966 28.1538ZM44.6966 22.6606C45.3924 22.6606 45.8685 22.1699 45.8685 21.5107C45.8685 20.8442 45.3924 20.3535 44.6966 20.3535C44.0081 20.3535 43.5247 20.8442 43.5247 21.5107C43.5247 22.1699 44.0081 22.6606 44.6966 22.6606Z" fill="white"/>
<path d="M52.7242 28H54.5333V26.0298H55.9615V24.4331H54.5333V17.4312H51.8673C49.9996 20.2437 48.5128 22.5947 47.5606 24.3452V26.0298H52.7242V28ZM49.3111 24.3672C50.5416 22.1992 51.6402 20.4634 52.651 18.9692H52.7535V24.4771H49.3111V24.3672Z" fill="white"/>
<path d="M59.9901 28H61.8798V17.4312H59.9975L57.2362 19.3647V21.1812L59.8656 19.3354H59.9901V28Z" fill="white"/>
</g>
<defs>
<clipPath id="clip0">
<rect width="375" height="44" fill="white"/>
</clipPath>
</defs>
</svg>
