<svg width="335" height="54" viewBox="0 0 335 54" fill="none" xmlns="http://www.w3.org/2000/svg">
<rect width="335" height="54" rx="4" fill="#387CFF" fill-opacity="0.4"/>
<path d="M131.162 28.552L131.002 27.048C129.162 27.384 126.538 27.464 125.178 27.464V24.568H129.802V19.224H123.242V20.712H127.93V23.08H123.306V29H124.81C127.226 29 129.658 28.84 131.162 28.552ZM133.882 18.008H132.01V32.264H133.882V25.016H135.882V23.48H133.882V18.008ZM149.133 32.136V30.632H140.957V29.688H148.685V25.88H138.989V27.368H146.813V28.344H139.085V32.136H149.133ZM142.861 24.616V22.392H144.141V25.144H145.917V18.264H144.141V20.904H142.861V18.616H140.989V20.28H138.973V18.648H137.085V24.616H142.861ZM148.701 25.208V18.008H146.925V25.208H148.701ZM140.989 23.128H138.973V21.736H140.989V23.128ZM166.268 21.944V20.456H155.884V21.944H159.996C159.452 23.32 157.436 24.104 155.26 24.36L156.06 25.864C158.044 25.672 160.3 24.648 161.084 23.224C161.98 24.616 164.316 25.688 166.06 25.832L166.876 24.328C164.732 24.12 162.748 23.304 162.204 21.944H166.268ZM161.98 32.248V27.992H167.516V26.504H154.636V27.992H160.108V32.248H161.98ZM158.748 19.656H163.388V18.168H158.748V19.656ZM181.68 25.032V23.48H179.616V18.008H177.76V32.264H179.616V25.032H181.68ZM175.872 19.464H169.216V21.016H173.84C173.584 23.864 171.456 26.856 168.352 28.28L169.488 29.688C173.856 27.32 175.744 23.768 175.872 19.464ZM195.295 26.584C195.231 26.104 195.215 25.656 195.167 25.176C194.111 25.336 192.895 25.432 191.583 25.496V24.296C193.135 23.992 194.207 22.888 194.207 21.512C194.207 19.832 192.687 18.568 190.671 18.568C188.623 18.568 187.103 19.832 187.103 21.496C187.103 22.872 188.159 23.96 189.695 24.296V25.56C188.575 25.592 187.423 25.592 186.287 25.592L186.527 27.096C188.559 27.096 192.799 26.92 195.295 26.584ZM197.823 18.008H195.951V28.616H197.823V24.184H199.695V22.648H197.823V18.008ZM198.159 32.056V30.584H190.159V28.024H188.287V32.056H198.159ZM192.383 21.496C192.383 22.216 191.711 22.984 190.671 22.984C189.599 22.984 188.927 22.216 188.927 21.496C188.927 20.76 189.599 20.008 190.671 20.008C191.711 20.008 192.383 20.76 192.383 21.496ZM212.035 26.776V25.272H203.875V23.544H211.619V18.92H201.939V20.408H209.763V22.056H202.019V26.776H203.619V29H200.371V30.488H213.251V29H209.971V26.776H212.035ZM205.443 26.776H208.163V29H205.443V26.776Z" fill="white" fill-opacity="0.3"/>
</svg>
