<svg width="162" height="47" viewBox="0 0 162 47" fill="none" xmlns="http://www.w3.org/2000/svg">
<path fill-rule="evenodd" clip-rule="evenodd" d="M2.73828 0.985352C1.63371 0.985352 0.738281 1.88078 0.738281 2.98535V44.9854C0.738281 46.0899 1.63372 46.9854 2.73828 46.9854H146.738L161.738 31.9854V2.98535C161.738 1.88078 160.843 0.985352 159.738 0.985352H2.73828Z" fill="#4CA6FF"/>
<path d="M18.0503 28.3134H21.6503C24.1143 28.3134 25.3303 27.0334 25.3303 25.2574C25.3303 23.7054 24.4663 22.9214 23.1223 22.6654V22.6014C24.4183 22.1854 24.8823 21.3534 24.8823 20.2814C24.8823 18.5854 23.8903 17.5614 21.3783 17.5614H18.0503V28.3134ZM19.4583 27.1294V23.3214H21.4743C22.9943 23.3214 23.8583 23.8334 23.8583 25.1934C23.8583 26.4894 23.0743 27.1294 21.5703 27.1294H19.4583ZM19.4583 22.1854V18.7774H21.2663C22.6583 18.7774 23.4103 19.1454 23.4103 20.4734C23.4103 21.8014 22.4343 22.1854 21.1383 22.1854H19.4583ZM27.1395 28.3134H28.5155V16.8574H27.1395V28.3134ZM33.1165 28.4574C34.0765 28.4574 34.8925 28.0894 35.5485 27.6254H35.6285L35.7885 28.3134H36.9405V20.3614H35.5645V26.7134C35.0045 27.0014 34.3325 27.2894 33.5165 27.2894C32.3645 27.2894 32.0285 26.8734 32.0285 25.8974V20.3614H30.6845V26.1214C30.6845 27.6574 31.5325 28.4574 33.1165 28.4574ZM42.4192 28.4574C43.7312 28.4574 44.6432 28.0414 45.1072 27.6894V26.6814C44.3872 27.0654 43.6992 27.2894 42.6432 27.2894C41.0592 27.2894 40.1312 26.6174 40.0352 24.7294H45.3472V23.9614C45.3472 21.4654 44.3072 20.2014 42.1312 20.2014C40.2752 20.2014 38.6272 21.4494 38.6272 24.2174V24.4574C38.6272 26.9054 39.9072 28.4574 42.4192 28.4574ZM42.0672 21.3054C43.2672 21.3054 43.9072 21.9614 43.9072 23.6254H40.0352C40.1632 21.8014 41.1712 21.3054 42.0672 21.3054Z" fill="white" fill-opacity="0.93"/>
<path d="M146.738 46.9854V33.9854C146.738 32.8808 147.634 31.9854 148.738 31.9854H161.738L146.738 46.9854Z" fill="white" fill-opacity="0.3"/>
</svg>
