<svg width="196" height="363" viewBox="0 0 196 363" fill="none" xmlns="http://www.w3.org/2000/svg">
<rect width="196" height="363" rx="2" fill="#292C33"/>
<g filter="url(#filter0_d_3149_54815)">
<rect x="30" y="50" width="138" height="255.582" rx="1.40816" fill="url(#paint0_linear_3149_54815)"/>
</g>
<rect x="84.0908" y="149.979" width="33.1542" height="24.3781" rx="1.40816" fill="#1B1D21"/>
<g filter="url(#filter1_bd_3149_54815)">
<mask id="path-4-inside-1_3149_54815" fill="white">
<path fill-rule="evenodd" clip-rule="evenodd" d="M92.9838 161.528C92.4251 160.704 91.2118 160.704 90.6532 161.528L81.6427 174.81C81.0084 175.745 81.6782 177.008 82.808 177.008H100.829C100.83 177.008 100.831 177.008 100.832 177.008H107.668C108.799 177.008 109.468 175.743 108.832 174.808L103.302 166.68C102.743 165.859 101.532 165.859 100.973 166.68L98.723 169.988L92.9838 161.528Z"/>
</mask>
<path fill-rule="evenodd" clip-rule="evenodd" d="M92.9838 161.528C92.4251 160.704 91.2118 160.704 90.6532 161.528L81.6427 174.81C81.0084 175.745 81.6782 177.008 82.808 177.008H100.829C100.83 177.008 100.831 177.008 100.832 177.008H107.668C108.799 177.008 109.468 175.743 108.832 174.808L103.302 166.68C102.743 165.859 101.532 165.859 100.973 166.68L98.723 169.988L92.9838 161.528Z" fill="url(#paint1_linear_3149_54815)" fill-opacity="0.3"/>
<path d="M90.6531 161.528L90.3618 161.33V161.33L90.6531 161.528ZM92.9838 161.528L92.6924 161.725V161.725L92.9838 161.528ZM81.6427 174.81L81.3514 174.612H81.3514L81.6427 174.81ZM108.832 174.808L108.541 175.006V175.006L108.832 174.808ZM103.302 166.68L103.593 166.482V166.482L103.302 166.68ZM100.973 166.68L100.682 166.482L100.973 166.68ZM98.7229 169.988L98.4316 170.185L98.7225 170.614L99.014 170.186L98.7229 169.988ZM90.9445 161.725C91.3634 161.108 92.2735 161.108 92.6924 161.725L93.2751 161.33C92.5768 160.301 91.0601 160.301 90.3618 161.33L90.9445 161.725ZM81.934 175.007L90.9445 161.725L90.3618 161.33L81.3514 174.612L81.934 175.007ZM82.808 176.656C81.9606 176.656 81.4583 175.709 81.934 175.007L81.3514 174.612C80.5585 175.781 81.3957 177.36 82.808 177.36V176.656ZM100.829 176.656H82.808V177.36H100.829V176.656ZM100.832 176.656C100.831 176.656 100.83 176.656 100.83 176.656C100.829 176.656 100.829 176.656 100.829 176.656V177.36C100.83 177.36 100.831 177.36 100.831 177.36C100.832 177.36 100.832 177.36 100.832 177.36V176.656ZM107.668 176.656H100.832V177.36H107.668V176.656ZM108.541 175.006C109.018 175.707 108.516 176.656 107.668 176.656V177.36C109.082 177.36 109.918 175.779 109.123 174.61L108.541 175.006ZM103.011 166.878L108.541 175.006L109.123 174.61L103.593 166.482L103.011 166.878ZM101.264 166.878C101.684 166.262 102.592 166.262 103.011 166.878L103.593 166.482C102.894 165.456 101.381 165.456 100.682 166.482L101.264 166.878ZM99.014 170.186L101.264 166.878L100.682 166.482L98.4319 169.79L99.014 170.186ZM92.6924 161.725L98.4316 170.185L99.0143 169.79L93.2751 161.33L92.6924 161.725Z" fill="#EFF0FF" fill-opacity="0.1" mask="url(#path-4-inside-1_3149_54815)"/>
</g>
<rect x="106.52" y="154.855" width="5.85075" height="5.85075" rx="2.92537" fill="#292C33"/>
<path d="M0 1.86313C0 0.834152 0.834152 0 1.86313 0H194.137C195.166 0 196 0.834152 196 1.86313V24H0V1.86313Z" fill="#26292F"/>
<rect x="29.5" y="49.5" width="138" height="256" rx="1.36313" stroke="#3D414C"/>
<path d="M41 49.5H30.8631C29.8342 49.5 29 50.3342 29 51.3631V61.3385" stroke="#525866" stroke-width="2"/>
<path d="M92.5 49.5H104.5" stroke="#525866" stroke-width="2"/>
<path d="M29 184.656L29 172.817" stroke="#525866" stroke-width="2"/>
<path d="M168 184.656L168 172.817" stroke="#525866" stroke-width="2"/>
<path d="M157 49.5H166.137C167.166 49.5 168 50.3342 168 51.3631V61.3385" stroke="#525866" stroke-width="2"/>
<path d="M156 306L166.137 306C167.166 306 168 305.166 168 304.137L168 294.162" stroke="#525866" stroke-width="2"/>
<path d="M104.5 306L92.5 306" stroke="#525866" stroke-width="2"/>
<path d="M40 306L30.8631 306C29.8342 306 29 305.166 29 304.137L29 294.162" stroke="#525866" stroke-width="2"/>
<circle cx="170" cy="12.7368" r="4.73684" fill="#EFF0FF" fill-opacity="0.18"/>
<rect x="152" y="8.47363" width="8.52632" height="8.52632" fill="#EFF0FF" fill-opacity="0.18"/>
<path d="M178.526 16.5263L183.263 8L188 16.5263H178.526Z" fill="#EFF0FF" fill-opacity="0.18"/>
<g filter="url(#filter2_b_3149_54815)">
<path d="M0 245C0 240.582 3.58172 237 8 237H188C192.418 237 196 240.582 196 245V361C196 362.105 195.105 363 194 363H2C0.89543 363 0 362.105 0 361V245Z" fill="#3D414C" fill-opacity="0.7"/>
<path d="M8 237.25H188C192.28 237.25 195.75 240.72 195.75 245V361C195.75 361.966 194.966 362.75 194 362.75H2C1.0335 362.75 0.25 361.966 0.25 361V245C0.25 240.72 3.71979 237.25 8 237.25Z" stroke="#EFF0FF" stroke-opacity="0.1" stroke-width="0.5"/>
</g>
<path d="M23.467 349.553V343.316H22.774V349.553H23.467ZM22.235 349.252V343.449H21.563V345.619H20.884V346.207H21.563V349.252H22.235ZM21.031 347.313C20.429 347.432 19.862 347.474 19.155 347.474V346.214H20.639V344.002H18.42V344.569H19.918V345.647H18.441V348.062H18.966C19.715 348.055 20.569 348.013 21.122 347.88L21.031 347.313ZM29.3976 349.553V343.316H28.6836V349.553H29.3976ZM24.4486 345.983C24.4486 347.299 25.0436 348.167 26.0446 348.167C27.0456 348.167 27.6266 347.299 27.6266 345.99C27.6266 344.667 27.0456 343.799 26.0446 343.799C25.0436 343.799 24.4486 344.667 24.4486 345.983ZM26.9476 345.983C26.9476 346.984 26.5766 347.586 26.0446 347.586C25.5196 347.586 25.1556 346.984 25.1556 345.983C25.1556 344.982 25.5196 344.387 26.0446 344.387C26.5766 344.387 26.9476 344.982 26.9476 345.983ZM35.9583 346.529V345.962H30.3233V346.529H35.9583ZM35.4683 349.511V348.937H31.7583V348.496H35.2373V346.991H31.0163V347.565H34.5233V347.971H31.0443V349.511H35.4683ZM35.2373 345.5V343.393H34.5233V343.918H31.7653V343.4H31.0443V345.5H35.2373ZM34.5233 344.947H31.7653V344.471H34.5233V344.947ZM40.7969 346.277V349.553H41.5109V343.316H40.7969V345.675H39.7819V346.277H40.7969ZM39.8169 347.348C39.0259 347.495 37.9759 347.53 37.3319 347.53V346.151H39.3619V343.862H36.6179V344.436H38.6409V345.57H36.6179V348.125H37.3109C38.3609 348.118 39.2219 348.055 39.8869 347.929L39.8169 347.348ZM46.2796 347.313C45.4746 347.467 44.2496 347.509 43.5076 347.509V346.158H45.6216V343.862H42.7656V344.436H44.9076V345.584H42.7936V348.104L43.5636 348.097C44.6906 348.09 45.6706 348.027 46.3566 347.901L46.2796 347.313ZM47.5676 349.553V343.316H46.8536V349.553H47.5676Z" fill="white" fill-opacity="0.93"/>
<path d="M48.35 257.61V256.79H40.3V257.61H48.35ZM48.14 254.03C46.8 253.79 44.87 252.54 44.87 251.01V250.42H43.8V251.01C43.8 252.55 41.98 253.76 40.53 253.99L41.03 254.83C42.38 254.5 43.91 253.49 44.32 252.39C44.78 253.47 46.29 254.48 47.6 254.83L48.14 254.03ZM56.0023 250.88H49.9023V251.7H54.9723C54.9623 252.2 54.9523 252.74 54.9223 253.27L49.6223 253.52L49.7523 254.33L54.8823 254.04C54.8323 254.77 54.7423 255.48 54.5923 256.11L55.5823 256.21C55.9523 254.59 56.0023 252.64 56.0023 250.88ZM57.0023 257.58V256.75H48.9523V257.58H57.0023ZM64.9347 256.34V249.88H63.9147V256.34H64.9347ZM65.1747 258.59V257.76H60.0547V255.96H59.0347V258.59H65.1747ZM62.8347 254.13C62.0147 254.31 60.1747 254.4 59.0847 254.4V253.19H62.0447V250.49H58.0047V251.32H61.0147V252.4H58.0547V255.23H59.1747C60.4747 255.22 62.0347 255.14 62.9647 254.93L62.8347 254.13ZM74.487 253.37H73.177V252.13H74.487V251.31H73.177V249.88H72.147V255.74H73.177V254.21H74.487V253.37ZM71.417 253.97C70.407 253.62 69.317 252.51 69.317 251.12V250.29H68.257V251.17C68.257 252.54 67.347 253.69 66.067 254.19L66.697 254.99C67.607 254.61 68.527 253.74 68.797 252.8C69.177 253.66 70.097 254.45 70.827 254.77L71.417 253.97ZM73.827 258.08C72.467 257.86 70.947 256.91 70.947 255.64V255.31H69.887V255.64C69.887 256.91 68.407 257.91 66.977 258.07L67.457 258.88C68.747 258.68 70.067 257.77 70.397 256.95C70.807 257.75 72.117 258.66 73.327 258.89L73.827 258.08Z" fill="white" fill-opacity="0.3"/>
<path d="M45.341 268.553V262.316H44.627V268.553H45.341ZM40.392 264.983C40.392 266.299 40.987 267.167 41.988 267.167C42.989 267.167 43.57 266.299 43.57 264.99C43.57 263.667 42.989 262.799 41.988 262.799C40.987 262.799 40.392 263.667 40.392 264.983ZM42.891 264.983C42.891 265.984 42.52 266.586 41.988 266.586C41.463 266.586 41.099 265.984 41.099 264.983C41.099 263.982 41.463 263.387 41.988 263.387C42.52 263.387 42.891 263.982 42.891 264.983ZM51.3976 268.553V262.316H50.6836V268.553H51.3976ZM48.7796 266.369H47.2956V263.492H48.7796V266.369ZM49.5076 262.918H46.5746V266.95H49.5076V262.918ZM56.2223 266.523C55.3053 266.026 54.6333 265.095 54.6333 263.835V263.534H55.9003V262.967H52.5893V263.534H53.8913V263.842C53.8913 265.102 53.2683 266.089 52.2743 266.649L52.7293 267.174C53.4713 266.782 54.1013 265.956 54.2623 265.284C54.4653 265.928 55.2213 266.726 55.8023 267.048L56.2223 266.523ZM57.4613 268.553V262.316H56.7473V268.553H57.4613Z" fill="#EFF0FF" fill-opacity="0.18"/>
<rect x="172" y="247" width="14" height="14" rx="7" fill="#EFF0FF" fill-opacity="0.18"/>
<path fill-rule="evenodd" clip-rule="evenodd" d="M179 254.413L180.856 256.269L181.268 255.856L179.412 254L181.268 252.144L180.856 251.732L179 253.588L177.144 251.732L176.731 252.144L178.587 254L176.731 255.856L177.144 256.269L179 254.413Z" fill="white" fill-opacity="0.3"/>
<rect x="10" y="292" width="46" height="46" rx="7.79661" fill="#1B1D21"/>
<g filter="url(#filter3_d_3149_54815)">
<path fill-rule="evenodd" clip-rule="evenodd" d="M28.5465 301.878C28.4351 301.462 28.0076 301.215 27.5916 301.326L19.3595 303.532C18.9436 303.644 18.6967 304.071 18.8082 304.487L23.8254 323.211L34.114 329.152L35.738 328.716L28.5465 301.878Z" fill="url(#paint2_linear_3149_54815)"/>
</g>
<g filter="url(#filter4_b_3149_54815)">
<path d="M33.8353 328.989L23.8252 323.21L44.1718 317.758C44.5877 317.646 45.0152 317.893 45.1267 318.309L46.8976 324.918C47.009 325.334 46.7622 325.762 46.3463 325.873L34.4269 329.067C34.2272 329.12 34.0143 329.092 33.8353 328.989Z" fill="white" fill-opacity="0.55"/>
<path d="M33.8743 328.922L24.0272 323.236L44.192 317.833C44.5663 317.733 44.9511 317.955 45.0514 318.329L46.8223 324.938C46.9226 325.313 46.7004 325.698 46.3261 325.798L34.4067 328.992C34.227 329.04 34.0354 329.015 33.8743 328.922Z" stroke="white" stroke-opacity="0.3" stroke-width="0.155932"/>
</g>
<rect x="65.2002" y="292" width="46" height="46" rx="7.79661" fill="#292C33" fill-opacity="0.6"/>
<rect x="120.4" y="292" width="46" height="46" rx="7.79661" fill="#292C33" fill-opacity="0.6"/>
<path d="M173 299.797C173 295.491 176.491 292 180.797 292H196V338H180.797C176.491 338 173 334.509 173 330.203V299.797Z" fill="#292C33" fill-opacity="0.6"/>
<rect opacity="0.5" y="281" width="196" height="0.5" fill="#EFF0FF" fill-opacity="0.18"/>
<rect x="10" y="247" width="24" height="24" rx="0.96" fill="#292C33"/>
<rect x="14.6523" y="252.28" width="15.914" height="11.7015" rx="0.675918" fill="#1B1D21"/>
<g filter="url(#filter5_bd_3149_54815)">
<mask id="path-37-inside-2_3149_54815" fill="white">
<path fill-rule="evenodd" clip-rule="evenodd" d="M18.9208 257.823C18.6527 257.428 18.0702 257.428 17.8021 257.823L13.4771 264.198C13.1726 264.647 13.4941 265.254 14.0364 265.254H22.6865C22.689 265.254 22.6916 265.254 22.6941 265.254H25.9694C26.5122 265.254 26.8336 264.646 26.5282 264.198L23.8736 260.296C23.6053 259.902 23.0242 259.902 22.7559 260.296L21.6757 261.884L18.9208 257.823Z"/>
</mask>
<path fill-rule="evenodd" clip-rule="evenodd" d="M18.9208 257.823C18.6527 257.428 18.0702 257.428 17.8021 257.823L13.4771 264.198C13.1726 264.647 13.4941 265.254 14.0364 265.254H22.6865C22.689 265.254 22.6916 265.254 22.6941 265.254H25.9694C26.5122 265.254 26.8336 264.646 26.5282 264.198L23.8736 260.296C23.6053 259.902 23.0242 259.902 22.7559 260.296L21.6757 261.884L18.9208 257.823Z" fill="url(#paint3_linear_3149_54815)" fill-opacity="0.3"/>
<path d="M17.8021 257.823L17.9419 257.918L17.8021 257.823ZM18.9208 257.823L19.0606 257.728L18.9208 257.823ZM13.4771 264.199L13.6169 264.293L13.4771 264.199ZM22.6941 265.254V265.085L22.6923 265.085L22.6941 265.254ZM26.5282 264.198L26.3885 264.293L26.5282 264.198ZM23.8736 260.296L23.7339 260.391V260.391L23.8736 260.296ZM22.7559 260.296L22.6162 260.201L22.7559 260.296ZM21.6757 261.884L21.5358 261.979L21.6754 262.185L21.8154 261.979L21.6757 261.884ZM17.9419 257.918C18.143 257.621 18.5799 257.621 18.781 257.918L19.0606 257.728C18.7255 257.234 17.9974 257.234 17.6623 257.728L17.9419 257.918ZM13.6169 264.293L17.9419 257.918L17.6623 257.728L13.3373 264.104L13.6169 264.293ZM14.0364 265.085C13.6297 265.085 13.3886 264.63 13.6169 264.293L13.3373 264.104C12.9567 264.665 13.3585 265.423 14.0364 265.423V265.085ZM22.6865 265.085H14.0364V265.423H22.6865V265.085ZM22.6923 265.085C22.6904 265.085 22.6884 265.085 22.6865 265.085V265.423C22.6896 265.423 22.6928 265.423 22.6959 265.423L22.6923 265.085ZM25.9694 265.085H22.6941V265.423H25.9694V265.085ZM26.3885 264.293C26.6175 264.629 26.3765 265.085 25.9694 265.085V265.423C26.6479 265.423 27.0496 264.664 26.6679 264.103L26.3885 264.293ZM23.7339 260.391L26.3885 264.293L26.6679 264.103L24.0133 260.201L23.7339 260.391ZM22.8956 260.391C23.0968 260.096 23.5327 260.096 23.7339 260.391L24.0133 260.201C23.678 259.708 22.9516 259.709 22.6162 260.201L22.8956 260.391ZM21.8154 261.979L22.8956 260.391L22.6162 260.201L21.5359 261.789L21.8154 261.979ZM18.781 257.918L21.5358 261.979L21.8155 261.789L19.0606 257.728L18.781 257.918Z" fill="#EFF0FF" fill-opacity="0.1" mask="url(#path-37-inside-2_3149_54815)"/>
</g>
<rect x="25.4189" y="254.62" width="2.80836" height="2.80836" rx="1.40418" fill="#292C33"/>
<rect x="62.7197" y="357" width="70.0373" height="2" rx="1" fill="#EFF0FF" fill-opacity="0.18"/>
<defs>
<filter id="filter0_d_3149_54815" x="24.3673" y="50" width="149.265" height="266.847" filterUnits="userSpaceOnUse" color-interpolation-filters="sRGB">
<feFlood flood-opacity="0" result="BackgroundImageFix"/>
<feColorMatrix in="SourceAlpha" type="matrix" values="0 0 0 0 0 0 0 0 0 0 0 0 0 0 0 0 0 0 127 0" result="hardAlpha"/>
<feOffset dy="5.63265"/>
<feGaussianBlur stdDeviation="2.81633"/>
<feColorMatrix type="matrix" values="0 0 0 0 0 0 0 0 0 0 0 0 0 0 0 0 0 0 0.1 0"/>
<feBlend mode="normal" in2="BackgroundImageFix" result="effect1_dropShadow_3149_54815"/>
<feBlend mode="normal" in="SourceGraphic" in2="effect1_dropShadow_3149_54815" result="shape"/>
</filter>
<filter id="filter1_bd_3149_54815" x="74.3566" y="159.502" width="41.7633" height="30.18" filterUnits="userSpaceOnUse" color-interpolation-filters="sRGB">
<feFlood flood-opacity="0" result="BackgroundImageFix"/>
<feGaussianBlur in="BackgroundImage" stdDeviation="0.704082"/>
<feComposite in2="SourceAlpha" operator="in" result="effect1_backgroundBlur_3149_54815"/>
<feColorMatrix in="SourceAlpha" type="matrix" values="0 0 0 0 0 0 0 0 0 0 0 0 0 0 0 0 0 0 127 0" result="hardAlpha"/>
<feOffset dy="5.63265"/>
<feGaussianBlur stdDeviation="3.52041"/>
<feColorMatrix type="matrix" values="0 0 0 0 0 0 0 0 0 0 0 0 0 0 0 0 0 0 0.2 0"/>
<feBlend mode="normal" in2="effect1_backgroundBlur_3149_54815" result="effect2_dropShadow_3149_54815"/>
<feBlend mode="normal" in="SourceGraphic" in2="effect2_dropShadow_3149_54815" result="shape"/>
</filter>
<filter id="filter2_b_3149_54815" x="-18" y="219" width="232" height="162" filterUnits="userSpaceOnUse" color-interpolation-filters="sRGB">
<feFlood flood-opacity="0" result="BackgroundImageFix"/>
<feGaussianBlur in="BackgroundImage" stdDeviation="9"/>
<feComposite in2="SourceAlpha" operator="in" result="effect1_backgroundBlur_3149_54815"/>
<feBlend mode="normal" in="SourceGraphic" in2="effect1_backgroundBlur_3149_54815" result="shape"/>
</filter>
<filter id="filter3_d_3149_54815" x="15.441" y="297.959" width="23.6376" height="34.5326" filterUnits="userSpaceOnUse" color-interpolation-filters="sRGB">
<feFlood flood-opacity="0" result="BackgroundImageFix"/>
<feColorMatrix in="SourceAlpha" type="matrix" values="0 0 0 0 0 0 0 0 0 0 0 0 0 0 0 0 0 0 127 0" result="hardAlpha"/>
<feOffset/>
<feGaussianBlur stdDeviation="1.67013"/>
<feColorMatrix type="matrix" values="0 0 0 0 0 0 0 0 0 0 0 0 0 0 0 0 0 0 0.2 0"/>
<feBlend mode="normal" in2="BackgroundImageFix" result="effect1_dropShadow_3149_54815"/>
<feBlend mode="normal" in="SourceGraphic" in2="effect1_dropShadow_3149_54815" result="shape"/>
</filter>
<filter id="filter4_b_3149_54815" x="21.4862" y="315.392" width="27.7776" height="16.0403" filterUnits="userSpaceOnUse" color-interpolation-filters="sRGB">
<feFlood flood-opacity="0" result="BackgroundImageFix"/>
<feGaussianBlur in="BackgroundImage" stdDeviation="1.16949"/>
<feComposite in2="SourceAlpha" operator="in" result="effect1_backgroundBlur_3149_54815"/>
<feBlend mode="normal" in="SourceGraphic" in2="effect1_backgroundBlur_3149_54815" result="shape"/>
</filter>
<filter id="filter5_bd_3149_54815" x="9.97978" y="256.851" width="20.0463" height="14.4865" filterUnits="userSpaceOnUse" color-interpolation-filters="sRGB">
<feFlood flood-opacity="0" result="BackgroundImageFix"/>
<feGaussianBlur in="BackgroundImage" stdDeviation="0.337959"/>
<feComposite in2="SourceAlpha" operator="in" result="effect1_backgroundBlur_3149_54815"/>
<feColorMatrix in="SourceAlpha" type="matrix" values="0 0 0 0 0 0 0 0 0 0 0 0 0 0 0 0 0 0 127 0" result="hardAlpha"/>
<feOffset dy="2.70367"/>
<feGaussianBlur stdDeviation="1.6898"/>
<feColorMatrix type="matrix" values="0 0 0 0 0 0 0 0 0 0 0 0 0 0 0 0 0 0 0.2 0"/>
<feBlend mode="normal" in2="effect1_backgroundBlur_3149_54815" result="effect2_dropShadow_3149_54815"/>
<feBlend mode="normal" in="SourceGraphic" in2="effect2_dropShadow_3149_54815" result="shape"/>
</filter>
<linearGradient id="paint0_linear_3149_54815" x1="30" y1="50" x2="168" y2="305.582" gradientUnits="userSpaceOnUse">
<stop stop-color="#25272E"/>
<stop offset="1" stop-color="#212329"/>
</linearGradient>
<linearGradient id="paint1_linear_3149_54815" x1="95.2381" y1="162.042" x2="95.2381" y2="173.93" gradientUnits="userSpaceOnUse">
<stop stop-color="white" stop-opacity="0.4"/>
<stop offset="1" stop-color="white" stop-opacity="0.3"/>
</linearGradient>
<linearGradient id="paint2_linear_3149_54815" x1="36.0154" y1="319.744" x2="19.1957" y2="304.098" gradientUnits="userSpaceOnUse">
<stop stop-color="#3177FF"/>
<stop offset="0.578878" stop-color="#367DFF"/>
<stop offset="1" stop-color="#5E94FF"/>
</linearGradient>
<linearGradient id="paint3_linear_3149_54815" x1="20.0029" y1="258.07" x2="20.0029" y2="263.776" gradientUnits="userSpaceOnUse">
<stop stop-color="white" stop-opacity="0.4"/>
<stop offset="1" stop-color="white" stop-opacity="0.3"/>
</linearGradient>
</defs>
</svg>
