<svg width="162" height="47" viewBox="0 0 162 47" fill="none" xmlns="http://www.w3.org/2000/svg">
<path fill-rule="evenodd" clip-rule="evenodd" d="M2.75391 0.985352C1.64934 0.985352 0.753906 1.88078 0.753906 2.98535V44.9854C0.753906 46.0899 1.64934 46.9854 2.75391 46.9854H146.754L161.754 31.9854V2.98535C161.754 1.88078 160.858 0.985352 159.754 0.985352H2.75391Z" fill="#A06EE5"/>
<path d="M20.8499 28.3134H22.1459L26.0179 17.5614H24.6739L21.6019 26.4094H21.5539L18.4499 17.5614H16.9779L20.8499 28.3134ZM27.3583 28.3134H28.7343V20.3614H27.3583V28.3134ZM27.3583 18.7934H28.7503V17.3694H27.3583V18.7934ZM34.0713 28.4574C36.2473 28.4574 37.7193 26.9374 37.7193 24.4414V24.1854C37.7193 21.6894 36.3593 20.2014 34.0873 20.2014C31.9113 20.2014 30.4553 21.7374 30.4553 24.2334V24.5054C30.4553 26.9854 31.7833 28.4574 34.0713 28.4574ZM34.1033 27.3374C32.8713 27.3374 31.8633 26.6814 31.8633 24.5374V24.0894C31.8633 22.3134 32.6633 21.3214 34.0553 21.3214C35.2873 21.3214 36.2953 22.0094 36.2953 24.1534V24.5854C36.2953 26.3614 35.4953 27.3374 34.1033 27.3374ZM39.4208 28.3134H40.7968V16.8574H39.4208V28.3134ZM46.3098 28.4574C47.6218 28.4574 48.5338 28.0414 48.9978 27.6894V26.6814C48.2778 27.0654 47.5898 27.2894 46.5338 27.2894C44.9498 27.2894 44.0218 26.6174 43.9258 24.7294H49.2378V23.9614C49.2378 21.4654 48.1978 20.2014 46.0218 20.2014C44.1658 20.2014 42.5178 21.4494 42.5178 24.2174V24.4574C42.5178 26.9054 43.7978 28.4574 46.3098 28.4574ZM45.9578 21.3054C47.1578 21.3054 47.7978 21.9614 47.7978 23.6254H43.9258C44.0538 21.8014 45.0618 21.3054 45.9578 21.3054ZM53.5582 28.3934C54.2782 28.3934 54.5982 28.2334 54.9342 28.0894V27.1614C54.6142 27.2414 54.2462 27.2894 53.9262 27.2894C53.0302 27.2894 52.7742 27.0014 52.7742 26.2494V21.4974H54.7742V20.3614H52.7742V18.4734H51.4142V20.3614H50.2782V21.4974H51.4142V26.4414C51.4142 27.8494 52.2942 28.3934 53.5582 28.3934Z" fill="white" fill-opacity="0.93"/>
<path d="M146.754 46.9854V33.9854C146.754 32.8808 147.649 31.9854 148.754 31.9854H161.754L146.754 46.9854Z" fill="white" fill-opacity="0.3"/>
</svg>
