<svg width="162" height="47" viewBox="0 0 162 47" fill="none" xmlns="http://www.w3.org/2000/svg">
<path fill-rule="evenodd" clip-rule="evenodd" d="M2.72266 0.985352C1.61809 0.985352 0.722656 1.88078 0.722656 2.98535V44.9854C0.722656 46.0899 1.61809 46.9854 2.72266 46.9854H146.723L161.723 31.9854V2.98535C161.723 1.88078 160.827 0.985352 159.723 0.985352H2.72266Z" fill="#52CCCC"/>
<path d="M18.0347 28.3134H19.4427V24.0734H21.6027C23.6187 24.0734 25.0427 22.9374 25.0427 20.7614C25.0427 18.7294 23.8427 17.5614 21.4587 17.5614H18.0347V28.3134ZM19.4427 22.9054V18.7774H21.3307C22.9307 18.7774 23.5387 19.3694 23.5387 20.8734C23.5387 22.2494 22.8987 22.9054 21.2987 22.9054H19.4427ZM29.9035 28.4574C31.2155 28.4574 32.1275 28.0414 32.5915 27.6894V26.6814C31.8715 27.0654 31.1835 27.2894 30.1275 27.2894C28.5435 27.2894 27.6155 26.6174 27.5195 24.7294H32.8315V23.9614C32.8315 21.4654 31.7915 20.2014 29.6155 20.2014C27.7595 20.2014 26.1115 21.4494 26.1115 24.2174V24.4574C26.1115 26.9054 27.3915 28.4574 29.9035 28.4574ZM29.5515 21.3054C30.7515 21.3054 31.3915 21.9614 31.3915 23.6254H27.5195C27.6475 21.8014 28.6555 21.3054 29.5515 21.3054ZM36.4658 28.4574C37.5218 28.4574 38.1458 28.0894 38.5458 27.6414H38.6258L38.7698 28.3134H39.8578V22.5534C39.8578 20.9534 38.8498 20.2014 37.0898 20.2014C36.1298 20.2014 35.3778 20.3614 34.6578 20.6334V21.6094C35.1378 21.5134 35.7778 21.3854 36.5618 21.3854C37.9858 21.3854 38.5138 21.6734 38.5138 22.8894V23.6254L36.4018 23.8814C34.8978 24.0734 34.0018 24.8254 34.0018 26.2014C34.0018 27.7374 35.0418 28.4574 36.4658 28.4574ZM36.8018 27.4014C35.9698 27.4014 35.4098 27.0014 35.4098 26.1694C35.4098 25.3054 35.8418 24.9374 36.7538 24.8414L38.5138 24.6654V26.8574C38.1618 27.1774 37.5058 27.4014 36.8018 27.4014ZM45.1825 28.4574C46.2865 28.4574 47.0065 28.1694 47.5345 27.8334V26.7454C47.1185 26.9374 46.3985 27.3054 45.3265 27.3054C43.7265 27.3054 42.8945 26.4574 42.8945 24.4734V24.0574C42.8945 22.3134 43.7585 21.3694 45.1665 21.3694C46.2225 21.3694 46.7185 21.5614 47.4225 21.8654V20.7294C46.8945 20.4094 46.2865 20.2014 45.2625 20.2014C43.1665 20.2014 41.4865 21.4494 41.4865 24.2494V24.5214C41.4865 27.1774 42.9265 28.4574 45.1825 28.4574ZM52.1807 28.4574C54.3567 28.4574 55.8287 26.9374 55.8287 24.4414V24.1854C55.8287 21.6894 54.4687 20.2014 52.1967 20.2014C50.0207 20.2014 48.5647 21.7374 48.5647 24.2334V24.5054C48.5647 26.9854 49.8927 28.4574 52.1807 28.4574ZM52.2127 27.3374C50.9807 27.3374 49.9727 26.6814 49.9727 24.5374V24.0894C49.9727 22.3134 50.7727 21.3214 52.1647 21.3214C53.3967 21.3214 54.4047 22.0094 54.4047 24.1534V24.5854C54.4047 26.3614 53.6047 27.3374 52.2127 27.3374ZM60.6982 28.4574C61.8022 28.4574 62.5222 28.1694 63.0502 27.8334V26.7454C62.6342 26.9374 61.9142 27.3054 60.8422 27.3054C59.2422 27.3054 58.4102 26.4574 58.4102 24.4734V24.0574C58.4102 22.3134 59.2742 21.3694 60.6822 21.3694C61.7382 21.3694 62.2342 21.5614 62.9382 21.8654V20.7294C62.4102 20.4094 61.8022 20.2014 60.7782 20.2014C58.6822 20.2014 57.0022 21.4494 57.0022 24.2494V24.5214C57.0022 27.1774 58.4422 28.4574 60.6982 28.4574ZM64.5763 28.3134H65.9363V16.8574H64.5763V28.3134ZM69.2803 28.3134H70.8483L67.4883 24.1054L70.6083 20.3614H69.1203L66.0643 24.2014L69.2803 28.3134ZM80.9808 28.4894C82.3728 28.4894 83.5248 28.2014 84.3408 27.8654V23.0494H80.6928V24.2174H82.9488V27.0014C82.4688 27.1774 81.7328 27.3054 81.0288 27.3054C78.1808 27.3054 77.5088 25.5294 77.5088 23.1454V22.6494C77.5088 20.5534 78.3728 18.5854 80.9968 18.5854C82.4528 18.5854 83.2688 18.9534 83.9248 19.2414V18.0414C83.2848 17.6894 82.4368 17.3854 81.1088 17.3854C78.4368 17.3854 75.9888 18.7774 75.9888 22.8574V23.1774C75.9888 26.8894 77.9728 28.4894 80.9808 28.4894ZM86.4044 28.3134H87.7644V22.1054C88.3244 21.7374 89.0764 21.4974 89.8284 21.4974C89.9564 21.4974 90.2124 21.5134 90.4364 21.5454V20.3294C90.3564 20.2974 90.1324 20.2654 89.9404 20.2654C89.0764 20.2654 88.2124 20.7134 87.7804 21.2414H87.7004V20.3614H86.4044V28.3134ZM95.1379 28.4574C96.4499 28.4574 97.3619 28.0414 97.8259 27.6894V26.6814C97.1059 27.0654 96.4179 27.2894 95.3619 27.2894C93.7779 27.2894 92.8499 26.6174 92.7539 24.7294H98.0659V23.9614C98.0659 21.4654 97.0259 20.2014 94.8499 20.2014C92.9939 20.2014 91.3459 21.4494 91.3459 24.2174V24.4574C91.3459 26.9054 92.6259 28.4574 95.1379 28.4574ZM94.7859 21.3054C95.9859 21.3054 96.6259 21.9614 96.6259 23.6254H92.7539C92.8819 21.8014 93.8899 21.3054 94.7859 21.3054ZM103.044 28.4574C104.356 28.4574 105.268 28.0414 105.732 27.6894V26.6814C105.012 27.0654 104.324 27.2894 103.268 27.2894C101.684 27.2894 100.756 26.6174 100.66 24.7294H105.972V23.9614C105.972 21.4654 104.932 20.2014 102.756 20.2014C100.9 20.2014 99.2522 21.4494 99.2522 24.2174V24.4574C99.2522 26.9054 100.532 28.4574 103.044 28.4574ZM102.692 21.3054C103.892 21.3054 104.532 21.9614 104.532 23.6254H100.66C100.788 21.8014 101.796 21.3054 102.692 21.3054ZM107.654 28.3134H109.014V21.9134C109.59 21.6414 110.406 21.3854 111.11 21.3854C112.358 21.3854 112.662 21.7694 112.662 22.6814V28.3134H114.006V22.3934C114.006 20.8574 113.27 20.2014 111.702 20.2014C110.726 20.2014 109.702 20.5694 109.03 21.0494H108.95V20.3614H107.654V28.3134Z" fill="white" fill-opacity="0.93"/>
<path d="M146.723 46.9854V33.9854C146.723 32.8808 147.618 31.9854 148.723 31.9854H161.723L146.723 46.9854Z" fill="white" fill-opacity="0.3"/>
</svg>
