<svg width="161" height="46" viewBox="0 0 161 46" fill="none" xmlns="http://www.w3.org/2000/svg">
<rect width="161" height="46" rx="2" fill="#353125"/>
<path d="M19.696 27.328H21.12V23.168L24.592 16.576H23.216L20.512 21.84H20.448L17.696 16.576H16.192L19.696 23.168V27.328ZM29.1809 27.472C30.4929 27.472 31.4049 27.056 31.8689 26.704V25.696C31.1489 26.08 30.4609 26.304 29.4049 26.304C27.8209 26.304 26.8929 25.632 26.7969 23.744H32.1089V22.976C32.1089 20.48 31.0689 19.216 28.8929 19.216C27.0369 19.216 25.3889 20.464 25.3889 23.232V23.472C25.3889 25.92 26.6689 27.472 29.1809 27.472ZM28.8289 20.32C30.0289 20.32 30.6689 20.976 30.6689 22.64H26.7969C26.9249 20.816 27.9329 20.32 28.8289 20.32ZM33.8231 27.328H35.1991V15.872H33.8231V27.328ZM37.4481 27.328H38.8241V15.872H37.4481V27.328ZM44.1611 27.472C46.3371 27.472 47.8091 25.952 47.8091 23.456V23.2C47.8091 20.704 46.4491 19.216 44.1771 19.216C42.0011 19.216 40.5451 20.752 40.5451 23.248V23.52C40.5451 26 41.8731 27.472 44.1611 27.472ZM44.1931 26.352C42.9611 26.352 41.9531 25.696 41.9531 23.552V23.104C41.9531 21.328 42.7531 20.336 44.1451 20.336C45.3771 20.336 46.3851 21.024 46.3851 23.168V23.6C46.3851 25.376 45.5851 26.352 44.1931 26.352ZM50.9986 27.328H52.3906L54.1666 21.472H54.2306L56.0066 27.328H57.3666L59.6226 19.376H58.3106L56.7586 25.584H56.6946L54.8386 19.376H53.6546L51.8146 25.584H51.7666L50.1986 19.376H48.7426L50.9986 27.328Z" fill="#FFE299"/>
</svg>
