<svg width="162" height="47" viewBox="0 0 162 47" fill="none" xmlns="http://www.w3.org/2000/svg">
<rect x="0.253906" y="0.74707" width="161" height="46" rx="2" fill="#E8C15D" fill-opacity="0.15"/>
<path d="M19.9499 28.0751H21.3739V23.9151L24.8459 17.3231H23.4699L20.7659 22.5871H20.7019L17.9499 17.3231H16.4459L19.9499 23.9151V28.0751ZM29.4348 28.2191C30.7468 28.2191 31.6588 27.8031 32.1228 27.4511V26.4431C31.4028 26.8271 30.7148 27.0511 29.6588 27.0511C28.0748 27.0511 27.1468 26.3791 27.0508 24.4911H32.3628V23.7231C32.3628 21.2271 31.3228 19.9631 29.1468 19.9631C27.2908 19.9631 25.6428 21.2111 25.6428 23.9791V24.2191C25.6428 26.6671 26.9228 28.2191 29.4348 28.2191ZM29.0828 21.0671C30.2828 21.0671 30.9228 21.7231 30.9228 23.3871H27.0508C27.1788 21.5631 28.1868 21.0671 29.0828 21.0671ZM34.077 28.0751H35.453V16.6191H34.077V28.0751ZM37.702 28.0751H39.078V16.6191H37.702V28.0751ZM44.415 28.2191C46.591 28.2191 48.063 26.6991 48.063 24.2031V23.9471C48.063 21.4511 46.703 19.9631 44.431 19.9631C42.255 19.9631 40.799 21.4991 40.799 23.9951V24.2671C40.799 26.7471 42.127 28.2191 44.415 28.2191ZM44.447 27.0991C43.215 27.0991 42.207 26.4431 42.207 24.2991V23.8511C42.207 22.0751 43.007 21.0831 44.399 21.0831C45.631 21.0831 46.639 21.7711 46.639 23.9151V24.3471C46.639 26.1231 45.839 27.0991 44.447 27.0991ZM51.2525 28.0751H52.6445L54.4205 22.2191H54.4845L56.2605 28.0751H57.6205L59.8765 20.1231H58.5645L57.0125 26.3311H56.9485L55.0925 20.1231H53.9085L52.0685 26.3311H52.0205L50.4525 20.1231H48.9965L51.2525 28.0751Z" fill="#FFE299"/>
</svg>
