<svg width="162" height="47" viewBox="0 0 162 47" fill="none" xmlns="http://www.w3.org/2000/svg">
<rect x="0.753906" y="0.0517578" width="161" height="46" rx="2" fill="#353125"/>
<path d="M20.4499 27.3798H21.8739V23.2198L25.3459 16.6278H23.9699L21.2659 21.8918H21.2019L18.4499 16.6278H16.9459L20.4499 23.2198V27.3798ZM29.9348 27.5238C31.2468 27.5238 32.1588 27.1078 32.6228 26.7558V25.7478C31.9028 26.1318 31.2148 26.3558 30.1588 26.3558C28.5748 26.3558 27.6468 25.6838 27.5508 23.7958H32.8628V23.0278C32.8628 20.5318 31.8228 19.2678 29.6468 19.2678C27.7908 19.2678 26.1428 20.5158 26.1428 23.2838V23.5238C26.1428 25.9718 27.4228 27.5238 29.9348 27.5238ZM29.5828 20.3718C30.7828 20.3718 31.4228 21.0278 31.4228 22.6918H27.5508C27.6788 20.8678 28.6868 20.3718 29.5828 20.3718ZM34.577 27.3798H35.953V15.9238H34.577V27.3798ZM38.202 27.3798H39.578V15.9238H38.202V27.3798ZM44.915 27.5238C47.091 27.5238 48.563 26.0038 48.563 23.5078V23.2518C48.563 20.7558 47.203 19.2678 44.931 19.2678C42.755 19.2678 41.299 20.8038 41.299 23.2998V23.5718C41.299 26.0518 42.627 27.5238 44.915 27.5238ZM44.947 26.4038C43.715 26.4038 42.707 25.7478 42.707 23.6038V23.1558C42.707 21.3798 43.507 20.3878 44.899 20.3878C46.131 20.3878 47.139 21.0758 47.139 23.2198V23.6518C47.139 25.4278 46.339 26.4038 44.947 26.4038ZM51.7525 27.3798H53.1445L54.9205 21.5238H54.9845L56.7605 27.3798H58.1205L60.3765 19.4278H59.0645L57.5125 25.6358H57.4485L55.5925 19.4278H54.4085L52.5685 25.6358H52.5205L50.9525 19.4278H49.4965L51.7525 27.3798Z" fill="#FFE299"/>
</svg>
