<svg width="161" height="46" viewBox="0 0 161 46" fill="none" xmlns="http://www.w3.org/2000/svg">
<rect width="161" height="46" rx="2" fill="#C76761" fill-opacity="0.19"/>
<path d="M17.312 27.328H18.72V22.784H20.64L23.232 27.328H24.848L22.032 22.528V22.448C23.296 22 24.064 21.168 24.064 19.632C24.064 17.616 22.832 16.576 20.464 16.576H17.312V27.328ZM18.72 21.664V17.792H20.368C21.904 17.792 22.576 18.32 22.576 19.664C22.576 21.04 21.936 21.664 20.384 21.664H18.72ZM29.5403 27.472C30.8523 27.472 31.7643 27.056 32.2283 26.704V25.696C31.5083 26.08 30.8203 26.304 29.7643 26.304C28.1803 26.304 27.2523 25.632 27.1562 23.744H32.4683V22.976C32.4683 20.48 31.4283 19.216 29.2523 19.216C27.3963 19.216 25.7483 20.464 25.7483 23.232V23.472C25.7483 25.92 27.0283 27.472 29.5403 27.472ZM29.1883 20.32C30.3883 20.32 31.0283 20.976 31.0283 22.64H27.1562C27.2843 20.816 28.2923 20.32 29.1883 20.32ZM36.9665 27.472C38.0225 27.472 38.7905 27.152 39.2545 26.688H39.3345L39.4625 27.328H40.6145V15.872H39.2545V19.712C38.8385 19.472 38.1985 19.216 37.2225 19.216C35.1905 19.216 33.6865 20.48 33.6865 23.376V23.6C33.6865 26.528 35.4465 27.472 36.9665 27.472ZM37.4145 26.352C36.0385 26.352 35.1105 25.696 35.1105 23.552V23.2C35.1105 21.12 35.9425 20.384 37.3985 20.384C38.1985 20.384 38.9185 20.576 39.2545 20.848V25.728C38.9185 26 38.2945 26.352 37.4145 26.352Z" fill="#FFA799"/>
</svg>
