<svg width="161" height="46" viewBox="0 0 161 46" fill="none" xmlns="http://www.w3.org/2000/svg">
<rect width="161" height="46" rx="2" fill="#52CCCC" fill-opacity="0.15"/>
<path d="M17.312 27.328H18.72V23.088H20.88C22.896 23.088 24.32 21.952 24.32 19.776C24.32 17.744 23.12 16.576 20.736 16.576H17.312V27.328ZM18.72 21.92V17.792H20.608C22.208 17.792 22.816 18.384 22.816 19.888C22.816 21.264 22.176 21.92 20.576 21.92H18.72ZM29.1809 27.472C30.4929 27.472 31.4049 27.056 31.8689 26.704V25.696C31.1489 26.08 30.4609 26.304 29.4049 26.304C27.8209 26.304 26.8929 25.632 26.7969 23.744H32.1089V22.976C32.1089 20.48 31.0689 19.216 28.8929 19.216C27.0369 19.216 25.3889 20.464 25.3889 23.232V23.472C25.3889 25.92 26.6689 27.472 29.1809 27.472ZM28.8289 20.32C30.0289 20.32 30.6689 20.976 30.6689 22.64H26.7969C26.9249 20.816 27.9329 20.32 28.8289 20.32ZM35.7431 27.472C36.7991 27.472 37.4231 27.104 37.8231 26.656H37.9031L38.0471 27.328H39.1351V21.568C39.1351 19.968 38.1271 19.216 36.3671 19.216C35.4071 19.216 34.6551 19.376 33.9351 19.648V20.624C34.4151 20.528 35.0551 20.4 35.8391 20.4C37.2631 20.4 37.7911 20.688 37.7911 21.904V22.64L35.6791 22.896C34.1751 23.088 33.2791 23.84 33.2791 25.216C33.2791 26.752 34.3191 27.472 35.7431 27.472ZM36.0791 26.416C35.2471 26.416 34.6871 26.016 34.6871 25.184C34.6871 24.32 35.1191 23.952 36.0311 23.856L37.7911 23.68V25.872C37.4391 26.192 36.7831 26.416 36.0791 26.416ZM44.4599 27.472C45.5639 27.472 46.2839 27.184 46.8119 26.848V25.76C46.3959 25.952 45.6759 26.32 44.6039 26.32C43.0039 26.32 42.1719 25.472 42.1719 23.488V23.072C42.1719 21.328 43.0359 20.384 44.4439 20.384C45.4999 20.384 45.9959 20.576 46.6999 20.88V19.744C46.1719 19.424 45.5639 19.216 44.5399 19.216C42.4439 19.216 40.7639 20.464 40.7639 23.264V23.536C40.7639 26.192 42.2039 27.472 44.4599 27.472ZM51.458 27.472C53.634 27.472 55.106 25.952 55.106 23.456V23.2C55.106 20.704 53.746 19.216 51.474 19.216C49.298 19.216 47.842 20.752 47.842 23.248V23.52C47.842 26 49.17 27.472 51.458 27.472ZM51.49 26.352C50.258 26.352 49.25 25.696 49.25 23.552V23.104C49.25 21.328 50.05 20.336 51.442 20.336C52.674 20.336 53.682 21.024 53.682 23.168V23.6C53.682 25.376 52.882 26.352 51.49 26.352ZM59.9755 27.472C61.0795 27.472 61.7995 27.184 62.3275 26.848V25.76C61.9115 25.952 61.1915 26.32 60.1195 26.32C58.5195 26.32 57.6875 25.472 57.6875 23.488V23.072C57.6875 21.328 58.5515 20.384 59.9595 20.384C61.0155 20.384 61.5115 20.576 62.2155 20.88V19.744C61.6875 19.424 61.0795 19.216 60.0555 19.216C57.9595 19.216 56.2795 20.464 56.2795 23.264V23.536C56.2795 26.192 57.7195 27.472 59.9755 27.472ZM63.8536 27.328H65.2136V15.872H63.8536V27.328ZM68.5576 27.328H70.1256L66.7656 23.12L69.8856 19.376H68.3976L65.3416 23.216L68.5576 27.328ZM80.2581 27.504C81.6501 27.504 82.8021 27.216 83.6181 26.88V22.064H79.9701V23.232H82.2261V26.016C81.7461 26.192 81.0101 26.32 80.3061 26.32C77.4581 26.32 76.7861 24.544 76.7861 22.16V21.664C76.7861 19.568 77.6501 17.6 80.2741 17.6C81.7301 17.6 82.5461 17.968 83.2021 18.256V17.056C82.5621 16.704 81.7141 16.4 80.3861 16.4C77.7141 16.4 75.2661 17.792 75.2661 21.872V22.192C75.2661 25.904 77.2501 27.504 80.2581 27.504ZM85.6818 27.328H87.0418V21.12C87.6018 20.752 88.3538 20.512 89.1058 20.512C89.2338 20.512 89.4898 20.528 89.7138 20.56V19.344C89.6338 19.312 89.4098 19.28 89.2178 19.28C88.3538 19.28 87.4898 19.728 87.0578 20.256H86.9778V19.376H85.6818V27.328ZM94.4153 27.472C95.7273 27.472 96.6393 27.056 97.1033 26.704V25.696C96.3833 26.08 95.6953 26.304 94.6393 26.304C93.0553 26.304 92.1273 25.632 92.0312 23.744H97.3433V22.976C97.3433 20.48 96.3033 19.216 94.1273 19.216C92.2713 19.216 90.6233 20.464 90.6233 23.232V23.472C90.6233 25.92 91.9033 27.472 94.4153 27.472ZM94.0633 20.32C95.2633 20.32 95.9033 20.976 95.9033 22.64H92.0312C92.1593 20.816 93.1673 20.32 94.0633 20.32ZM102.322 27.472C103.634 27.472 104.546 27.056 105.01 26.704V25.696C104.29 26.08 103.602 26.304 102.546 26.304C100.962 26.304 100.034 25.632 99.9375 23.744H105.25V22.976C105.25 20.48 104.21 19.216 102.034 19.216C100.178 19.216 98.5295 20.464 98.5295 23.232V23.472C98.5295 25.92 99.8095 27.472 102.322 27.472ZM101.97 20.32C103.17 20.32 103.81 20.976 103.81 22.64H99.9375C100.066 20.816 101.074 20.32 101.97 20.32ZM106.932 27.328H108.292V20.928C108.868 20.656 109.684 20.4 110.388 20.4C111.636 20.4 111.94 20.784 111.94 21.696V27.328H113.284V21.408C113.284 19.872 112.548 19.216 110.98 19.216C110.004 19.216 108.98 19.584 108.308 20.064H108.228V19.376H106.932V27.328Z" fill="#A1E6E6"/>
</svg>
