<svg width="161" height="46" viewBox="0 0 161 46" fill="none" xmlns="http://www.w3.org/2000/svg">
<rect width="161" height="46" rx="2" fill="#EC9147" fill-opacity="0.15"/>
<path d="M21.392 27.504C24.384 27.504 26.144 25.44 26.144 22.112V21.808C26.144 18.32 24.384 16.4 21.456 16.4C18.48 16.4 16.688 18.464 16.688 21.792V22.096C16.688 25.6 18.48 27.504 21.392 27.504ZM21.44 26.352C19.072 26.352 18.208 24.576 18.208 22.08V21.552C18.208 19.28 19.216 17.568 21.392 17.568C23.792 17.568 24.64 19.328 24.64 21.824V22.336C24.64 24.608 23.632 26.352 21.44 26.352ZM27.9474 27.328H29.3074V21.12C29.8674 20.752 30.6194 20.512 31.3714 20.512C31.4994 20.512 31.7554 20.528 31.9794 20.56V19.344C31.8994 19.312 31.6754 19.28 31.4834 19.28C30.6194 19.28 29.7554 19.728 29.3234 20.256H29.2434V19.376H27.9474V27.328ZM35.1806 27.472C36.2366 27.472 36.8606 27.104 37.2606 26.656H37.3406L37.4846 27.328H38.5726V21.568C38.5726 19.968 37.5646 19.216 35.8046 19.216C34.8446 19.216 34.0926 19.376 33.3726 19.648V20.624C33.8526 20.528 34.4926 20.4 35.2766 20.4C36.7006 20.4 37.2286 20.688 37.2286 21.904V22.64L35.1166 22.896C33.6126 23.088 32.7166 23.84 32.7166 25.216C32.7166 26.752 33.7566 27.472 35.1806 27.472ZM35.5166 26.416C34.6846 26.416 34.1246 26.016 34.1246 25.184C34.1246 24.32 34.5566 23.952 35.4686 23.856L37.2286 23.68V25.872C36.8766 26.192 36.2206 26.416 35.5166 26.416ZM40.6974 27.328H42.0574V20.928C42.6334 20.656 43.4494 20.4 44.1534 20.4C45.4014 20.4 45.7054 20.784 45.7054 21.696V27.328H47.0494V21.408C47.0494 19.872 46.3134 19.216 44.7454 19.216C43.7694 19.216 42.7454 19.584 42.0734 20.064H41.9934V19.376H40.6974V27.328ZM51.9818 29.68C54.7018 29.68 55.8058 28.752 55.8058 27.328C55.8058 25.792 54.7338 25.312 53.2778 25.312H51.1018C50.5898 25.312 50.3498 25.2 50.3498 24.8C50.3498 24.56 50.4778 24.352 50.6858 24.192C51.0858 24.32 51.5178 24.384 51.9978 24.384C53.6938 24.384 55.0218 23.584 55.0218 21.888V21.728C55.0218 21.184 54.8618 20.736 54.5258 20.384H55.8858V19.36H53.1818C52.8138 19.264 52.4298 19.216 52.0138 19.216C50.2538 19.216 48.9898 20.16 48.9898 21.792V21.952C48.9898 22.848 49.3738 23.488 49.9818 23.872C49.3418 24.336 49.0698 24.816 49.0698 25.312C49.0698 25.856 49.4058 26.096 49.8698 26.272V26.352C49.0538 26.592 48.3818 27.104 48.3818 27.952C48.3818 29.136 49.5658 29.68 51.9818 29.68ZM51.9498 28.608C50.4618 28.608 49.8218 28.48 49.8218 27.76C49.8218 27.12 50.2378 26.784 50.7818 26.592H53.0218C54.0458 26.592 54.3818 26.896 54.3818 27.536C54.3818 28.336 53.7418 28.608 51.9498 28.608ZM51.9978 23.36C50.9898 23.36 50.3498 22.912 50.3498 21.92V21.68C50.3498 20.784 50.9578 20.24 51.9978 20.24C53.0058 20.24 53.6778 20.704 53.6778 21.712V21.952C53.6778 22.912 53.0538 23.36 51.9978 23.36ZM60.4778 27.472C61.7898 27.472 62.7018 27.056 63.1658 26.704V25.696C62.4458 26.08 61.7578 26.304 60.7018 26.304C59.1178 26.304 58.1898 25.632 58.0938 23.744H63.4058V22.976C63.4058 20.48 62.3658 19.216 60.1898 19.216C58.3338 19.216 56.6858 20.464 56.6858 23.232V23.472C56.6858 25.92 57.9658 27.472 60.4778 27.472ZM60.1258 20.32C61.3258 20.32 61.9658 20.976 61.9658 22.64H58.0938C58.2218 20.816 59.2298 20.32 60.1258 20.32Z" fill="#FFCBA1"/>
</svg>
