<svg width="80" height="67" viewBox="0 0 80 67" fill="none" xmlns="http://www.w3.org/2000/svg">
<g filter="url(#filter0_f)">
<path fill-rule="evenodd" clip-rule="evenodd" d="M25.0028 9L59.6524 11.4199L74.1523 52.544C60.0218 55.5301 41.8744 58.7812 25.0028 61.2402V9Z" fill="url(#paint0_radial)"/>
</g>
<g filter="url(#filter1_d)">
<path d="M74 4L4 4V52L74 52V4Z" fill="#525866"/>
</g>
<path fill-rule="evenodd" clip-rule="evenodd" d="M28.7261 32.6443L28.7261 33.1442L29.081 33.4963L33.6157 37.9945L33.9666 38.3425L34.4608 38.3425L42.0898 38.3425L42.5577 38.3425L42.9021 38.0258L47.7935 33.5276L48.1812 33.1711L48.1812 32.6443L48.1812 24.5476L45.7812 24.5476L45.7812 32.1176L41.6219 35.9425L34.955 35.9425L31.1261 32.1444L31.1261 25.0439L34.913 21.2494L41.5949 21.2494L41.5949 22.8794L45.7611 20.0957L41.5949 17.312L41.5949 18.8494L34.4152 18.8494L33.9175 18.8494L33.5658 19.2017L29.0767 23.6999L28.7261 24.0512L28.7261 24.5476L28.7261 32.6443Z" fill="white" fill-opacity="0.55"/>
<path d="M38.2607 24.3076V28.923L41.953 30.7692" stroke="white" stroke-opacity="0.55" stroke-width="2.2"/>
<defs>
<filter id="filter0_f" x="20.0029" y="4" width="59.1495" height="62.2402" filterUnits="userSpaceOnUse" color-interpolation-filters="sRGB">
<feFlood flood-opacity="0" result="BackgroundImageFix"/>
<feBlend mode="normal" in="SourceGraphic" in2="BackgroundImageFix" result="shape"/>
<feGaussianBlur stdDeviation="2.5" result="effect1_foregroundBlur"/>
</filter>
<filter id="filter1_d" x="0" y="0" width="78" height="56" filterUnits="userSpaceOnUse" color-interpolation-filters="sRGB">
<feFlood flood-opacity="0" result="BackgroundImageFix"/>
<feColorMatrix in="SourceAlpha" type="matrix" values="0 0 0 0 0 0 0 0 0 0 0 0 0 0 0 0 0 0 127 0" result="hardAlpha"/>
<feOffset/>
<feGaussianBlur stdDeviation="2"/>
<feColorMatrix type="matrix" values="0 0 0 0 0 0 0 0 0 0 0 0 0 0 0 0 0 0 0.2 0"/>
<feBlend mode="normal" in2="BackgroundImageFix" result="effect1_dropShadow"/>
<feBlend mode="normal" in="SourceGraphic" in2="effect1_dropShadow" result="shape"/>
</filter>
<radialGradient id="paint0_radial" cx="0" cy="0" r="1" gradientUnits="userSpaceOnUse" gradientTransform="translate(85.1543 57.5707) rotate(-174.371) scale(102.494 28.5445)">
<stop stop-opacity="0.8"/>
<stop offset="0.927083" stop-opacity="0"/>
</radialGradient>
</defs>
</svg>
