<svg width="80" height="71" viewBox="0 0 80 71" fill="none" xmlns="http://www.w3.org/2000/svg">
<g filter="url(#filter0_f)">
<path fill-rule="evenodd" clip-rule="evenodd" d="M25.0028 13L59.6524 15.4199L74.1523 56.544C60.0218 59.5301 41.8744 62.7812 25.0028 65.2402V13Z" fill="url(#paint0_radial)"/>
</g>
<g filter="url(#filter1_d)">
<path d="M74 4L4 4V56L74 56V4Z" fill="#525866"/>
</g>
<path fill-rule="evenodd" clip-rule="evenodd" d="M28 35.0002L28 35.5009L28.3559 35.8531L33.4077 40.8531L33.7584 41.2002L34.2518 41.2002L42.7508 41.2002L43.2179 41.2002L43.5621 40.8844L49.0113 35.8844L49.4 35.5277L49.4 35.0002L49.4 26.0002L47 26.0002L47 34.4727L42.2837 38.8002L34.7453 38.8002L30.4 34.4995L30.4 26.4973L34.698 22.2002L42.1992 22.2002L42.1992 25L48.1992 21L42.1992 17L42.1992 19.8002L34.2011 19.8002L33.7041 19.8002L33.3526 20.1516L28.3516 25.1516L28 25.5031L28 26.0002L28 35.0002Z" fill="white" fill-opacity="0.55"/>
<path d="M38.1992 26V31L42.1992 33" stroke="white" stroke-opacity="0.55" stroke-width="2.4"/>
<defs>
<filter id="filter0_f" x="20.0029" y="8" width="59.1495" height="62.2402" filterUnits="userSpaceOnUse" color-interpolation-filters="sRGB">
<feFlood flood-opacity="0" result="BackgroundImageFix"/>
<feBlend mode="normal" in="SourceGraphic" in2="BackgroundImageFix" result="shape"/>
<feGaussianBlur stdDeviation="2.5" result="effect1_foregroundBlur"/>
</filter>
<filter id="filter1_d" x="0" y="0" width="78" height="60" filterUnits="userSpaceOnUse" color-interpolation-filters="sRGB">
<feFlood flood-opacity="0" result="BackgroundImageFix"/>
<feColorMatrix in="SourceAlpha" type="matrix" values="0 0 0 0 0 0 0 0 0 0 0 0 0 0 0 0 0 0 127 0"/>
<feOffset/>
<feGaussianBlur stdDeviation="2"/>
<feColorMatrix type="matrix" values="0 0 0 0 0 0 0 0 0 0 0 0 0 0 0 0 0 0 0.2 0"/>
<feBlend mode="normal" in2="BackgroundImageFix" result="effect1_dropShadow"/>
<feBlend mode="normal" in="SourceGraphic" in2="effect1_dropShadow" result="shape"/>
</filter>
<radialGradient id="paint0_radial" cx="0" cy="0" r="1" gradientUnits="userSpaceOnUse" gradientTransform="translate(85.1543 61.5707) rotate(-174.371) scale(102.494 28.5445)">
<stop stop-opacity="0.8"/>
<stop offset="0.927083" stop-opacity="0"/>
</radialGradient>
</defs>
</svg>
