<svg width="161" height="46" viewBox="0 0 161 46" fill="none" xmlns="http://www.w3.org/2000/svg">
<rect width="161" height="46" rx="2" fill="#E089B5" fill-opacity="0.15"/>
<path d="M17.312 27.328H18.72V23.088H20.88C22.896 23.088 24.32 21.952 24.32 19.776C24.32 17.744 23.12 16.576 20.736 16.576H17.312V27.328ZM18.72 21.92V17.792H20.608C22.208 17.792 22.816 18.384 22.816 19.888C22.816 21.264 22.176 21.92 20.576 21.92H18.72ZM25.9169 27.328H27.2929V19.376H25.9169V27.328ZM25.9169 17.808H27.3089V16.384H25.9169V17.808ZM29.5099 27.328H30.8699V20.928C31.4459 20.656 32.2619 20.4 32.9659 20.4C34.2139 20.4 34.5179 20.784 34.5179 21.696V27.328H35.8619V21.408C35.8619 19.872 35.1259 19.216 33.5579 19.216C32.5819 19.216 31.5579 19.584 30.8859 20.064H30.8059V19.376H29.5099V27.328ZM37.9943 27.328H39.3543V15.872H37.9943V27.328ZM42.6983 27.328H44.2663L40.9062 23.12L44.0263 19.376H42.5383L39.4823 23.216L42.6983 27.328Z" fill="#FFC7E3"/>
</svg>
