<svg width="161" height="46" viewBox="0 0 161 46" fill="none" xmlns="http://www.w3.org/2000/svg">
<rect width="161" height="46" rx="2" fill="#6565E5" fill-opacity="0.15"/>
<path d="M21.392 27.504C22.64 27.504 23.648 27.248 24.4 26.816V25.616C23.712 25.936 22.896 26.304 21.6 26.304C19.184 26.304 18.208 24.736 18.208 22.08V21.504C18.208 18.72 19.616 17.6 21.52 17.6C22.592 17.6 23.376 17.824 24.272 18.16V16.992C23.616 16.624 22.752 16.4 21.632 16.4C18.896 16.4 16.688 17.856 16.688 21.728V22.096C16.688 25.744 18.528 27.504 21.392 27.504ZM29.1611 27.472C31.3371 27.472 32.8091 25.952 32.8091 23.456V23.2C32.8091 20.704 31.4491 19.216 29.1771 19.216C27.0011 19.216 25.5451 20.752 25.5451 23.248V23.52C25.5451 26 26.8731 27.472 29.1611 27.472ZM29.1931 26.352C27.9611 26.352 26.9531 25.696 26.9531 23.552V23.104C26.9531 21.328 27.7531 20.336 29.1451 20.336C30.3771 20.336 31.3851 21.024 31.3851 23.168V23.6C31.3851 25.376 30.5851 26.352 29.1931 26.352ZM37.4066 27.52C40.0306 27.52 41.3906 25.968 41.3906 23.328V23.088C41.3906 20.128 39.7906 19.216 38.3026 19.216C37.2466 19.216 36.5266 19.488 35.9186 19.856H35.8386V15.872H34.4786V27.104C35.1506 27.344 36.4946 27.52 37.4066 27.52ZM37.5026 26.368C36.7026 26.368 36.1746 26.24 35.8386 26.112V20.832C36.2066 20.672 36.9266 20.384 37.6626 20.384C39.2626 20.384 39.9986 21.088 39.9986 23.184V23.536C39.9986 25.76 38.7986 26.368 37.5026 26.368ZM45.0713 27.472C46.1273 27.472 46.7513 27.104 47.1513 26.656H47.2313L47.3753 27.328H48.4633V21.568C48.4633 19.968 47.4553 19.216 45.6953 19.216C44.7353 19.216 43.9833 19.376 43.2633 19.648V20.624C43.7433 20.528 44.3832 20.4 45.1673 20.4C46.5913 20.4 47.1193 20.688 47.1193 21.904V22.64L45.0073 22.896C43.5033 23.088 42.6073 23.84 42.6073 25.216C42.6073 26.752 43.6473 27.472 45.0713 27.472ZM45.4073 26.416C44.5753 26.416 44.0153 26.016 44.0153 25.184C44.0153 24.32 44.4473 23.952 45.3593 23.856L47.1193 23.68V25.872C46.7673 26.192 46.1113 26.416 45.4073 26.416ZM50.62 27.328H51.996V15.872H50.62V27.328ZM56.773 27.408C57.493 27.408 57.813 27.248 58.149 27.104V26.176C57.829 26.256 57.461 26.304 57.141 26.304C56.245 26.304 55.989 26.016 55.989 25.264V20.512H57.989V19.376H55.989V17.488H54.629V19.376H53.493V20.512H54.629V25.456C54.629 26.864 55.509 27.408 56.773 27.408ZM64.1401 27.328H67.7401C70.2041 27.328 71.4201 26.048 71.4201 24.272C71.4201 22.72 70.5561 21.936 69.2121 21.68V21.616C70.5081 21.2 70.9721 20.368 70.9721 19.296C70.9721 17.6 69.9801 16.576 67.4681 16.576H64.1401V27.328ZM65.5481 26.144V22.336H67.5641C69.0841 22.336 69.9481 22.848 69.9481 24.208C69.9481 25.504 69.1641 26.144 67.6601 26.144H65.5481ZM65.5481 21.2V17.792H67.3561C68.7481 17.792 69.5001 18.16 69.5001 19.488C69.5001 20.816 68.5241 21.2 67.2281 21.2H65.5481ZM73.2294 27.328H74.6054V15.872H73.2294V27.328ZM79.2064 27.472C80.1664 27.472 80.9824 27.104 81.6384 26.64H81.7184L81.8784 27.328H83.0304V19.376H81.6544V25.728C81.0944 26.016 80.4224 26.304 79.6064 26.304C78.4544 26.304 78.1184 25.888 78.1184 24.912V19.376H76.7744V25.136C76.7744 26.672 77.6224 27.472 79.2064 27.472ZM88.509 27.472C89.821 27.472 90.733 27.056 91.197 26.704V25.696C90.477 26.08 89.789 26.304 88.733 26.304C87.149 26.304 86.221 25.632 86.125 23.744H91.437V22.976C91.437 20.48 90.397 19.216 88.221 19.216C86.365 19.216 84.717 20.464 84.717 23.232V23.472C84.717 25.92 85.997 27.472 88.509 27.472ZM88.157 20.32C89.357 20.32 89.997 20.976 89.997 22.64H86.125C86.253 20.816 87.261 20.32 88.157 20.32Z" fill="#BFBFFF"/>
</svg>
