<svg width="162" height="47" viewBox="0 0 162 47" fill="none" xmlns="http://www.w3.org/2000/svg">
<path fill-rule="evenodd" clip-rule="evenodd" d="M2.73047 0.985352C1.6259 0.985352 0.730469 1.88078 0.730469 2.98535V44.9854C0.730469 46.0899 1.6259 46.9854 2.73047 46.9854H146.73L161.73 31.9854V2.98535C161.73 1.88078 160.835 0.985352 159.73 0.985352H2.73047Z" fill="#7B8399"/>
<path d="M22.4105 28.4894C23.8025 28.4894 24.9545 28.2014 25.7705 27.8654V23.0494H22.1225V24.2174H24.3785V27.0014C23.8985 27.1774 23.1625 27.3054 22.4585 27.3054C19.6105 27.3054 18.9385 25.5294 18.9385 23.1454V22.6494C18.9385 20.5534 19.8025 18.5854 22.4265 18.5854C23.8825 18.5854 24.6985 18.9534 25.3545 19.2414V18.0414C24.7145 17.6894 23.8665 17.3854 22.5385 17.3854C19.8665 17.3854 17.4185 18.7774 17.4185 22.8574V23.1774C17.4185 26.8894 19.4025 28.4894 22.4105 28.4894ZM27.8341 28.3134H29.1941V22.1054C29.7541 21.7374 30.5061 21.4974 31.2581 21.4974C31.3861 21.4974 31.6421 21.5134 31.8661 21.5454V20.3294C31.7861 20.2974 31.5621 20.2654 31.3701 20.2654C30.5061 20.2654 29.6421 20.7134 29.2101 21.2414H29.1301V20.3614H27.8341V28.3134ZM35.0673 28.4574C36.1233 28.4574 36.7473 28.0894 37.1473 27.6414H37.2273L37.3713 28.3134H38.4593V22.5534C38.4593 20.9534 37.4513 20.2014 35.6913 20.2014C34.7313 20.2014 33.9793 20.3614 33.2593 20.6334V21.6094C33.7393 21.5134 34.3793 21.3854 35.1633 21.3854C36.5873 21.3854 37.1153 21.6734 37.1153 22.8894V23.6254L35.0033 23.8814C33.4993 24.0734 32.6033 24.8254 32.6033 26.2014C32.6033 27.7374 33.6433 28.4574 35.0673 28.4574ZM35.4033 27.4014C34.5713 27.4014 34.0113 27.0014 34.0113 26.1694C34.0113 25.3054 34.4433 24.9374 35.3553 24.8414L37.1153 24.6654V26.8574C36.7633 27.1774 36.1073 27.4014 35.4033 27.4014ZM41.0961 30.6974C42.4241 30.6974 43.1281 30.5534 43.6721 29.0334L46.8881 20.3614H45.5601L43.4961 25.9934H43.4321L41.1921 20.3614H39.7201L42.7761 27.8014L42.4081 28.8414C42.1681 29.4174 41.5761 29.5774 40.8401 29.5774C40.5521 29.5774 40.2641 29.5454 40.0721 29.5134V30.4734C40.2961 30.5854 40.7121 30.6974 41.0961 30.6974Z" fill="white" fill-opacity="0.93"/>
<path d="M146.73 46.9854V33.9854C146.73 32.8808 147.626 31.9854 148.73 31.9854H161.73L146.73 46.9854Z" fill="white" fill-opacity="0.3"/>
</svg>
