<svg width="253" height="51" viewBox="0 0 253 51" fill="none" xmlns="http://www.w3.org/2000/svg">
<rect x="0.0078125" y="0.790039" width="252" height="50" rx="2" fill="#292C33"/>
<path d="M88.6503 25.046V17.926H87.2263V25.046H88.6503ZM89.1463 31.814V30.646H80.9703V29.27H88.6503V25.766H79.5143V26.918H87.2263V28.214H79.5623V31.814H89.1463ZM81.1463 18.39C79.1303 18.39 77.5623 19.718 77.5623 21.59C77.5623 23.494 79.1783 24.678 81.1463 24.678C83.1463 24.678 84.7143 23.446 84.7143 21.574C84.7143 19.686 83.1463 18.39 81.1463 18.39ZM81.1463 19.606C82.4743 19.606 83.3223 20.422 83.3223 21.574C83.3223 22.662 82.4583 23.494 81.1463 23.494C79.8983 23.494 78.9543 22.71 78.9543 21.574C78.9543 20.422 79.9303 19.606 81.1463 19.606ZM102.558 31.91V17.926H101.134V31.91H102.558ZM91.5181 23.91C91.5181 26.694 92.6381 28.87 95.1181 28.87C97.5981 28.87 98.7021 26.694 98.7021 23.926C98.7021 21.142 97.5981 18.982 95.1181 18.982C92.6381 18.982 91.5181 21.142 91.5181 23.91ZM97.2941 23.926C97.2941 26.086 96.5581 27.638 95.1181 27.638C93.6941 27.638 92.9581 26.086 92.9581 23.926C92.9581 21.766 93.6941 20.198 95.1181 20.198C96.5581 20.198 97.2941 21.766 97.2941 23.926ZM117.746 22.55V21.366H115.666V17.926H114.242V26.022H115.666V22.55H117.746ZM115.666 31.718V26.726H106.802V31.718H115.666ZM114.258 30.598H108.21V27.862H114.258V30.598ZM112.802 24.134C111.202 23.59 109.49 21.958 109.49 19.75V18.566H108.05V19.814C108.05 22.006 106.578 23.686 104.578 24.55L105.442 25.654C106.962 24.934 108.386 23.622 108.802 22.15C109.394 23.526 110.706 24.662 111.97 25.238L112.802 24.134ZM131.686 24.662V23.494H129.51V17.926H128.102V31.91H129.51V24.662H131.686ZM126.95 27.446C124.982 26.23 123.414 24.022 123.414 21.398V19.126H121.958V21.462C121.958 24.038 120.47 26.47 118.358 27.798L119.238 28.854C120.822 27.798 122.214 26.022 122.694 24.326C123.222 25.942 124.854 27.686 126.102 28.502L126.95 27.446ZM144.073 22.678C144.073 20.342 142.009 18.79 138.857 18.79C135.737 18.79 133.657 20.342 133.657 22.678C133.657 24.854 135.417 26.326 138.137 26.55V28.934H132.553V30.102H145.177V28.934H139.561V26.566C142.297 26.358 144.073 24.854 144.073 22.678ZM142.617 22.678C142.617 24.278 141.113 25.382 138.857 25.382C136.601 25.382 135.113 24.278 135.113 22.678C135.113 21.094 136.601 19.974 138.857 19.974C141.129 19.974 142.617 21.094 142.617 22.678ZM147.725 27.462V28.63H155.981V31.974H157.405V27.462H155.613V25.558H159.021V24.39H146.397V25.558H149.741V27.462H147.725ZM157.517 20.95C157.517 19.366 155.757 18.342 152.701 18.342C149.661 18.342 147.901 19.366 147.901 20.95C147.901 22.566 149.661 23.574 152.701 23.574C155.757 23.574 157.517 22.566 157.517 20.95ZM156.077 20.95C156.077 21.894 154.749 22.454 152.701 22.454C150.637 22.454 149.357 21.894 149.357 20.95C149.357 20.006 150.637 19.462 152.701 19.462C154.781 19.462 156.077 20.006 156.077 20.95ZM151.165 25.558H154.189V27.462H151.165V25.558ZM172.193 31.814V30.646H164.017V29.414H171.713V26.086H162.561V27.238H170.289V28.358H162.593V31.814H172.193ZM168.833 24.246C167.377 23.91 165.633 22.838 165.377 21.334H168.513V20.182H160.945V21.334H163.873C163.649 22.886 162.097 24.166 160.401 24.646L161.185 25.734C162.753 25.19 164.209 23.99 164.641 22.79C165.265 23.974 166.913 24.998 168.129 25.366L168.833 24.246ZM171.713 25.35V17.926H170.289V25.35H171.713ZM166.561 19.158V18.038H162.769V19.158H166.561ZM185.381 31.814V30.646H177.397V29.35H184.885V25.926H175.909V27.094H183.461V28.278H175.989V31.814H185.381ZM182.469 23.366C181.957 23.462 181.237 23.542 180.373 23.59L180.725 20.758L179.365 20.598L179.109 23.638C178.949 23.654 178.805 23.654 178.629 23.654C178.133 23.686 177.621 23.702 177.109 23.718L176.853 20.614L175.477 20.774L175.845 23.75C175.221 23.766 174.597 23.766 173.973 23.766L174.165 24.982C175.461 24.966 177.029 24.918 178.485 24.854C180.037 24.758 181.605 24.63 182.597 24.454L182.469 23.366ZM186.965 22.166V20.998H184.885V17.926H183.461V25.126H184.885V22.166H186.965ZM181.909 19.926V18.806H174.373V19.926H181.909ZM198.952 18.95H189.384V20.118H197.512C197.512 21.638 197.4 23.654 197.048 25.078H187.928V26.214H193.512V31.91H194.936V26.214H200.552V25.078H198.44C198.84 23.11 198.952 20.998 198.952 18.95ZM213.244 25.414V17.926H211.82V25.414H213.244ZM210.06 24.038C208.46 23.494 206.764 21.862 206.764 19.654V18.518H205.308V19.718C205.308 21.894 203.788 23.622 201.82 24.454L202.684 25.558C204.268 24.79 205.644 23.478 206.044 22.054C206.604 23.398 207.98 24.582 209.228 25.126L210.06 24.038ZM213.244 31.734V26.15H211.82V27.814H205.58V26.182H204.172V31.734H213.244ZM211.82 30.598H205.58V28.918H211.82V30.598Z" fill="#C5C5C5"/>
<rect x="227.008" y="21.79" width="7" height="7" fill="#EC9147"/>
</svg>
