<svg width="253" height="51" viewBox="0 0 253 51" fill="none" xmlns="http://www.w3.org/2000/svg">
<rect x="0.0078125" y="0.169922" width="252" height="50" rx="2" fill="#292C33"/>
<path d="M88.6503 24.4259V17.3059H87.2263V24.4259H88.6503ZM89.1463 31.1939V30.0259H80.9703V28.6499H88.6503V25.1459H79.5143V26.2979H87.2263V27.5939H79.5623V31.1939H89.1463ZM81.1463 17.7699C79.1303 17.7699 77.5623 19.0979 77.5623 20.9699C77.5623 22.8739 79.1783 24.0579 81.1463 24.0579C83.1463 24.0579 84.7143 22.8259 84.7143 20.9539C84.7143 19.0659 83.1463 17.7699 81.1463 17.7699ZM81.1463 18.9859C82.4743 18.9859 83.3223 19.8019 83.3223 20.9539C83.3223 22.0419 82.4583 22.8739 81.1463 22.8739C79.8983 22.8739 78.9543 22.0899 78.9543 20.9539C78.9543 19.8019 79.9303 18.9859 81.1463 18.9859ZM102.558 31.2899V17.3059H101.134V31.2899H102.558ZM91.5181 23.2899C91.5181 26.0739 92.6381 28.2499 95.1181 28.2499C97.5981 28.2499 98.7021 26.0739 98.7021 23.3059C98.7021 20.5219 97.5981 18.3619 95.1181 18.3619C92.6381 18.3619 91.5181 20.5219 91.5181 23.2899ZM97.2941 23.3059C97.2941 25.4659 96.5581 27.0179 95.1181 27.0179C93.6941 27.0179 92.9581 25.4659 92.9581 23.3059C92.9581 21.1459 93.6941 19.5779 95.1181 19.5779C96.5581 19.5779 97.2941 21.1459 97.2941 23.3059ZM117.746 21.9299V20.7459H115.666V17.3059H114.242V25.4019H115.666V21.9299H117.746ZM115.666 31.0979V26.1059H106.802V31.0979H115.666ZM114.258 29.9779H108.21V27.2419H114.258V29.9779ZM112.802 23.5139C111.202 22.9699 109.49 21.3379 109.49 19.1299V17.9459H108.05V19.1939C108.05 21.3859 106.578 23.0659 104.578 23.9299L105.442 25.0339C106.962 24.3139 108.386 23.0019 108.802 21.5299C109.394 22.9059 110.706 24.0419 111.97 24.6179L112.802 23.5139ZM131.686 24.0419V22.8739H129.51V17.3059H128.102V31.2899H129.51V24.0419H131.686ZM126.95 26.8259C124.982 25.6099 123.414 23.4019 123.414 20.7779V18.5059H121.958V20.8419C121.958 23.4179 120.47 25.8499 118.358 27.1779L119.238 28.2339C120.822 27.1779 122.214 25.4019 122.694 23.7059C123.222 25.3219 124.854 27.0659 126.102 27.8819L126.95 26.8259ZM144.073 22.0579C144.073 19.7219 142.009 18.1699 138.857 18.1699C135.737 18.1699 133.657 19.7219 133.657 22.0579C133.657 24.2339 135.417 25.7059 138.137 25.9299V28.3139H132.553V29.4819H145.177V28.3139H139.561V25.9459C142.297 25.7379 144.073 24.2339 144.073 22.0579ZM142.617 22.0579C142.617 23.6579 141.113 24.7619 138.857 24.7619C136.601 24.7619 135.113 23.6579 135.113 22.0579C135.113 20.4739 136.601 19.3539 138.857 19.3539C141.129 19.3539 142.617 20.4739 142.617 22.0579ZM147.725 26.8419V28.0099H155.981V31.3539H157.405V26.8419H155.613V24.9379H159.021V23.7699H146.397V24.9379H149.741V26.8419H147.725ZM157.517 20.3299C157.517 18.7459 155.757 17.7219 152.701 17.7219C149.661 17.7219 147.901 18.7459 147.901 20.3299C147.901 21.9459 149.661 22.9539 152.701 22.9539C155.757 22.9539 157.517 21.9459 157.517 20.3299ZM156.077 20.3299C156.077 21.2739 154.749 21.8339 152.701 21.8339C150.637 21.8339 149.357 21.2739 149.357 20.3299C149.357 19.3859 150.637 18.8419 152.701 18.8419C154.781 18.8419 156.077 19.3859 156.077 20.3299ZM151.165 24.9379H154.189V26.8419H151.165V24.9379ZM172.193 31.1939V30.0259H164.017V28.7939H171.713V25.4659H162.561V26.6179H170.289V27.7379H162.593V31.1939H172.193ZM168.833 23.6259C167.377 23.2899 165.633 22.2179 165.377 20.7139H168.513V19.5619H160.945V20.7139H163.873C163.649 22.2659 162.097 23.5459 160.401 24.0259L161.185 25.1139C162.753 24.5699 164.209 23.3699 164.641 22.1699C165.265 23.3539 166.913 24.3779 168.129 24.7459L168.833 23.6259ZM171.713 24.7299V17.3059H170.289V24.7299H171.713ZM166.561 18.5379V17.4179H162.769V18.5379H166.561ZM185.381 31.1939V30.0259H177.397V28.7299H184.885V25.3059H175.909V26.4739H183.461V27.6579H175.989V31.1939H185.381ZM182.469 22.7459C181.957 22.8419 181.237 22.9219 180.373 22.9699L180.725 20.1379L179.365 19.9779L179.109 23.0179C178.949 23.0339 178.805 23.0339 178.629 23.0339C178.133 23.0659 177.621 23.0819 177.109 23.0979L176.853 19.9939L175.477 20.1539L175.845 23.1299C175.221 23.1459 174.597 23.1459 173.973 23.1459L174.165 24.3619C175.461 24.3459 177.029 24.2979 178.485 24.2339C180.037 24.1379 181.605 24.0099 182.597 23.8339L182.469 22.7459ZM186.965 21.5459V20.3779H184.885V17.3059H183.461V24.5059H184.885V21.5459H186.965ZM181.909 19.3059V18.1859H174.373V19.3059H181.909ZM198.952 18.3299H189.384V19.4979H197.512C197.512 21.0179 197.4 23.0339 197.048 24.4579H187.928V25.5939H193.512V31.2899H194.936V25.5939H200.552V24.4579H198.44C198.84 22.4899 198.952 20.3779 198.952 18.3299ZM213.244 24.7939V17.3059H211.82V24.7939H213.244ZM210.06 23.4179C208.46 22.8739 206.764 21.2419 206.764 19.0339V17.8979H205.308V19.0979C205.308 21.2739 203.788 23.0019 201.82 23.8339L202.684 24.9379C204.268 24.1699 205.644 22.8579 206.044 21.4339C206.604 22.7779 207.98 23.9619 209.228 24.5059L210.06 23.4179ZM213.244 31.1139V25.5299H211.82V27.1939H205.58V25.5619H204.172V31.1139H213.244ZM211.82 29.9779H205.58V28.2979H211.82V29.9779Z" fill="#C5C5C5"/>
<rect x="227.008" y="21.1699" width="7" height="7" fill="#A06EE5"/>
</svg>
