<svg width="78" height="71" viewBox="0 0 78 71" fill="none" xmlns="http://www.w3.org/2000/svg">
<g filter="url(#filter0_f)">
<path fill-rule="evenodd" clip-rule="evenodd" d="M55.0011 13L20.3515 15.4199L5.85156 56.544C19.9821 59.5301 38.1295 62.7812 55.0011 65.2402V13Z" fill="url(#paint0_radial)"/>
</g>
<g filter="url(#filter1_d)">
<path fill-rule="evenodd" clip-rule="evenodd" d="M74 4L4 4L4 56H60L74 42V4Z" fill="#387CFF"/>
</g>
<path d="M74 42L60 56L60 42L74 42Z" fill="url(#paint1_linear)" fill-opacity="0.3"/>
<path fill-rule="evenodd" clip-rule="evenodd" d="M51 35V21H27V40H46L51 35ZM37.75 31.75H34V29.25H37.75V25.5H40.25V29.25H44V31.75H40.25V35.5H37.75V31.75Z" fill="white" fill-opacity="0.93"/>
<defs>
<filter id="filter0_f" x="0.851562" y="8" width="59.1495" height="62.2402" filterUnits="userSpaceOnUse" color-interpolation-filters="sRGB">
<feFlood flood-opacity="0" result="BackgroundImageFix"/>
<feBlend mode="normal" in="SourceGraphic" in2="BackgroundImageFix" result="shape"/>
<feGaussianBlur stdDeviation="2.5" result="effect1_foregroundBlur"/>
</filter>
<filter id="filter1_d" x="0" y="0" width="78" height="60" filterUnits="userSpaceOnUse" color-interpolation-filters="sRGB">
<feFlood flood-opacity="0" result="BackgroundImageFix"/>
<feColorMatrix in="SourceAlpha" type="matrix" values="0 0 0 0 0 0 0 0 0 0 0 0 0 0 0 0 0 0 127 0"/>
<feOffset/>
<feGaussianBlur stdDeviation="2"/>
<feColorMatrix type="matrix" values="0 0 0 0 0 0 0 0 0 0 0 0 0 0 0 0 0 0 0.2 0"/>
<feBlend mode="normal" in2="BackgroundImageFix" result="effect1_dropShadow"/>
<feBlend mode="normal" in="SourceGraphic" in2="effect1_dropShadow" result="shape"/>
</filter>
<radialGradient id="paint0_radial" cx="0" cy="0" r="1" gradientUnits="userSpaceOnUse" gradientTransform="translate(-5.15039 61.5707) rotate(-5.62868) scale(102.494 28.5445)">
<stop stop-opacity="0.8"/>
<stop offset="0.927083" stop-opacity="0"/>
</radialGradient>
<linearGradient id="paint1_linear" x1="61" y1="43" x2="90.5" y2="72.5" gradientUnits="userSpaceOnUse">
<stop stop-color="white"/>
<stop offset="1" stop-color="white" stop-opacity="0"/>
</linearGradient>
</defs>
</svg>
