<svg width="70" height="58" viewBox="0 0 70 58" fill="none" xmlns="http://www.w3.org/2000/svg">
<g clip-path="url(#clip0)">
<g filter="url(#filter0_f)">
<path fill-rule="evenodd" clip-rule="evenodd" d="M51.0011 5L16.3515 7.41991L1.85156 48.544C15.9821 51.5301 34.1295 54.7812 51.0011 57.2402V5Z" fill="url(#paint0_radial)"/>
</g>
<g filter="url(#filter1_d)">
<path fill-rule="evenodd" clip-rule="evenodd" d="M70 0L0 0L0 48H56L70 34V0Z" fill="#387CFF"/>
</g>
<path d="M70 34L56 48L56 34L70 34Z" fill="url(#paint1_linear)" fill-opacity="0.3"/>
</g>
<path fill-rule="evenodd" clip-rule="evenodd" d="M33.2117 23.8002V31H35.8117V23.8002H43.0117V21.2002H35.8117V14H33.2117V21.2002H26.0117V23.8002H33.2117Z" fill="white" fill-opacity="0.93"/>
<defs>
<filter id="filter0_f" x="-3.14844" y="0" width="59.1495" height="62.2402" filterUnits="userSpaceOnUse" color-interpolation-filters="sRGB">
<feFlood flood-opacity="0" result="BackgroundImageFix"/>
<feBlend mode="normal" in="SourceGraphic" in2="BackgroundImageFix" result="shape"/>
<feGaussianBlur stdDeviation="2.5" result="effect1_foregroundBlur"/>
</filter>
<filter id="filter1_d" x="-4" y="-4" width="78" height="56" filterUnits="userSpaceOnUse" color-interpolation-filters="sRGB">
<feFlood flood-opacity="0" result="BackgroundImageFix"/>
<feColorMatrix in="SourceAlpha" type="matrix" values="0 0 0 0 0 0 0 0 0 0 0 0 0 0 0 0 0 0 127 0" result="hardAlpha"/>
<feOffset/>
<feGaussianBlur stdDeviation="2"/>
<feColorMatrix type="matrix" values="0 0 0 0 0 0 0 0 0 0 0 0 0 0 0 0 0 0 0.2 0"/>
<feBlend mode="normal" in2="BackgroundImageFix" result="effect1_dropShadow"/>
<feBlend mode="normal" in="SourceGraphic" in2="effect1_dropShadow" result="shape"/>
</filter>
<radialGradient id="paint0_radial" cx="0" cy="0" r="1" gradientUnits="userSpaceOnUse" gradientTransform="translate(-9.15039 53.5707) rotate(-5.62868) scale(102.494 28.5445)">
<stop stop-opacity="0.8"/>
<stop offset="0.927083" stop-opacity="0"/>
</radialGradient>
<linearGradient id="paint1_linear" x1="57" y1="35" x2="86.5" y2="64.5" gradientUnits="userSpaceOnUse">
<stop stop-color="white"/>
<stop offset="1" stop-color="white" stop-opacity="0"/>
</linearGradient>
<clipPath id="clip0">
<rect width="70" height="57.2402" fill="white"/>
</clipPath>
</defs>
</svg>
