<svg width="161" height="46" viewBox="0 0 161 46" fill="none" xmlns="http://www.w3.org/2000/svg">
<rect width="161" height="46" rx="2" fill="#7B8399" fill-opacity="0.15"/>
<path d="M21.68 27.504C23.072 27.504 24.224 27.216 25.04 26.88V22.064H21.392V23.232H23.648V26.016C23.168 26.192 22.432 26.32 21.728 26.32C18.88 26.32 18.208 24.544 18.208 22.16V21.664C18.208 19.568 19.072 17.6 21.696 17.6C23.152 17.6 23.968 17.968 24.624 18.256V17.056C23.984 16.704 23.136 16.4 21.808 16.4C19.136 16.4 16.688 17.792 16.688 21.872V22.192C16.688 25.904 18.672 27.504 21.68 27.504ZM27.1036 27.328H28.4636V21.12C29.0236 20.752 29.7756 20.512 30.5276 20.512C30.6556 20.512 30.9116 20.528 31.1356 20.56V19.344C31.0556 19.312 30.8316 19.28 30.6396 19.28C29.7756 19.28 28.9116 19.728 28.4796 20.256H28.3996V19.376H27.1036V27.328ZM34.3369 27.472C35.3929 27.472 36.0169 27.104 36.4169 26.656H36.4969L36.6409 27.328H37.7289V21.568C37.7289 19.968 36.7209 19.216 34.9609 19.216C34.0009 19.216 33.2489 19.376 32.5289 19.648V20.624C33.0089 20.528 33.6489 20.4 34.4329 20.4C35.8569 20.4 36.3849 20.688 36.3849 21.904V22.64L34.2729 22.896C32.7689 23.088 31.8729 23.84 31.8729 25.216C31.8729 26.752 32.9129 27.472 34.3369 27.472ZM34.6729 26.416C33.8409 26.416 33.2809 26.016 33.2809 25.184C33.2809 24.32 33.7129 23.952 34.6249 23.856L36.3849 23.68V25.872C36.0329 26.192 35.3769 26.416 34.6729 26.416ZM40.3656 29.712C41.6936 29.712 42.3976 29.568 42.9416 28.048L46.1576 19.376H44.8296L42.7656 25.008H42.7016L40.4616 19.376H38.9896L42.0456 26.816L41.6776 27.856C41.4376 28.432 40.8456 28.592 40.1096 28.592C39.8216 28.592 39.5336 28.56 39.3416 28.528V29.488C39.5656 29.6 39.9816 29.712 40.3656 29.712Z" fill="#CCDAFF"/>
</svg>
