<svg width="161" height="46" viewBox="0 0 161 46" fill="none" xmlns="http://www.w3.org/2000/svg">
<rect width="161" height="46" rx="2" fill="#3EA87A" fill-opacity="0.15"/>
<path d="M21.68 27.504C23.072 27.504 24.224 27.216 25.04 26.88V22.064H21.392V23.232H23.648V26.016C23.168 26.192 22.432 26.32 21.728 26.32C18.88 26.32 18.208 24.544 18.208 22.16V21.664C18.208 19.568 19.072 17.6 21.696 17.6C23.152 17.6 23.968 17.968 24.624 18.256V17.056C23.984 16.704 23.136 16.4 21.808 16.4C19.136 16.4 16.688 17.792 16.688 21.872V22.192C16.688 25.904 18.672 27.504 21.68 27.504ZM27.1036 27.328H28.4636V21.12C29.0236 20.752 29.7756 20.512 30.5276 20.512C30.6556 20.512 30.9116 20.528 31.1356 20.56V19.344C31.0556 19.312 30.8316 19.28 30.6396 19.28C29.7756 19.28 28.9116 19.728 28.4796 20.256H28.3996V19.376H27.1036V27.328ZM35.8371 27.472C37.1491 27.472 38.0611 27.056 38.5251 26.704V25.696C37.8051 26.08 37.1171 26.304 36.0611 26.304C34.4771 26.304 33.5491 25.632 33.4531 23.744H38.7651V22.976C38.7651 20.48 37.7251 19.216 35.5491 19.216C33.6931 19.216 32.0451 20.464 32.0451 23.232V23.472C32.0451 25.92 33.3251 27.472 35.8371 27.472ZM35.4851 20.32C36.6851 20.32 37.3251 20.976 37.3251 22.64H33.4531C33.5811 20.816 34.5891 20.32 35.4851 20.32ZM43.7434 27.472C45.0554 27.472 45.9674 27.056 46.4314 26.704V25.696C45.7114 26.08 45.0234 26.304 43.9674 26.304C42.3834 26.304 41.4554 25.632 41.3594 23.744H46.6714V22.976C46.6714 20.48 45.6314 19.216 43.4554 19.216C41.5994 19.216 39.9514 20.464 39.9514 23.232V23.472C39.9514 25.92 41.2314 27.472 43.7434 27.472ZM43.3914 20.32C44.5914 20.32 45.2314 20.976 45.2314 22.64H41.3594C41.4874 20.816 42.4954 20.32 43.3914 20.32ZM48.3536 27.328H49.7136V20.928C50.2896 20.656 51.1056 20.4 51.8096 20.4C53.0576 20.4 53.3616 20.784 53.3616 21.696V27.328H54.7056V21.408C54.7056 19.872 53.9696 19.216 52.4016 19.216C51.4256 19.216 50.4016 19.584 49.7296 20.064H49.6496V19.376H48.3536V27.328Z" fill="#B1E6CF"/>
</svg>
