<svg width="162" height="47" viewBox="0 0 162 47" fill="none" xmlns="http://www.w3.org/2000/svg">
<path fill-rule="evenodd" clip-rule="evenodd" d="M2.73828 0.448242C1.63371 0.448242 0.738281 1.34367 0.738281 2.44824V44.4482C0.738281 45.5528 1.63372 46.4482 2.73828 46.4482H146.738L161.738 31.4482V2.44824C161.738 1.34367 160.843 0.448242 159.738 0.448242H2.73828Z" fill="#C76761"/>
<path d="M18.0503 27.7762H19.4583V23.2322H21.3783L23.9703 27.7762H25.5863L22.7703 22.9762V22.8962C24.0343 22.4482 24.8023 21.6162 24.8023 20.0802C24.8023 18.0642 23.5703 17.0242 21.2023 17.0242H18.0503V27.7762ZM19.4583 22.1122V18.2402H21.1063C22.6423 18.2402 23.3143 18.7682 23.3143 20.1122C23.3143 21.4882 22.6743 22.1122 21.1223 22.1122H19.4583ZM30.2785 27.9202C31.5905 27.9202 32.5025 27.5042 32.9665 27.1522V26.1442C32.2465 26.5282 31.5585 26.7522 30.5025 26.7522C28.9185 26.7522 27.9905 26.0802 27.8945 24.1922H33.2065V23.4242C33.2065 20.9282 32.1665 19.6642 29.9905 19.6642C28.1345 19.6642 26.4865 20.9122 26.4865 23.6802V23.9202C26.4865 26.3682 27.7665 27.9202 30.2785 27.9202ZM29.9265 20.7682C31.1265 20.7682 31.7665 21.4242 31.7665 23.0882H27.8945C28.0225 21.2642 29.0305 20.7682 29.9265 20.7682ZM37.7048 27.9202C38.7608 27.9202 39.5288 27.6002 39.9928 27.1362H40.0728L40.2008 27.7762H41.3528V16.3202H39.9928V20.1602C39.5768 19.9202 38.9368 19.6642 37.9608 19.6642C35.9288 19.6642 34.4248 20.9282 34.4248 23.8242V24.0482C34.4248 26.9762 36.1848 27.9202 37.7048 27.9202ZM38.1528 26.8002C36.7768 26.8002 35.8488 26.1442 35.8488 24.0002V23.6482C35.8488 21.5682 36.6808 20.8322 38.1368 20.8322C38.9368 20.8322 39.6568 21.0242 39.9928 21.2962V26.1762C39.6568 26.4482 39.0328 26.8002 38.1528 26.8002Z" fill="white" fill-opacity="0.93"/>
<path d="M146.738 46.4482V33.4482C146.738 32.3437 147.634 31.4482 148.738 31.4482H161.738L146.738 46.4482Z" fill="white" fill-opacity="0.3"/>
</svg>
