<svg width="160" height="48" viewBox="0 0 160 48" fill="none" xmlns="http://www.w3.org/2000/svg">
<rect width="160" height="48" rx="4" fill="#387CFF"/>
<path d="M36.3834 28.6302V27.1422H23.5034V28.6302H36.3834ZM36.1114 22.7902C33.9354 22.4222 30.9274 20.5502 30.9274 18.0382V17.0942H28.9754V18.0382C28.9754 20.5662 26.1434 22.4542 23.8074 22.7902L24.6874 24.3102C26.6554 23.8782 29.1994 22.3582 29.9354 20.4382C30.7514 22.3102 33.2154 23.7982 35.1674 24.2462L36.1114 22.7902ZM48.7232 17.7822H38.8832V19.2542H46.8512C46.8512 19.9262 46.8192 20.7422 46.7712 21.5902C43.9872 21.7182 41.1872 21.8302 38.3712 21.9422L38.6112 23.4302C41.2992 23.3022 44.0032 23.1422 46.6912 23.0142C46.5792 24.2462 46.4352 25.4302 46.2272 26.2782C46.8192 26.3262 47.4432 26.3742 48.0192 26.4382C48.4352 24.7582 48.7232 21.3182 48.7232 17.7822ZM50.2272 28.5982V27.1262H37.3472V28.5982H50.2272ZM62.9669 26.5662V16.2302H61.0949V26.5662H62.9669ZM63.3349 30.1822V28.6942H55.3509V25.9102H53.4629V30.1822H63.3349ZM59.5589 22.9822C58.4709 23.2862 55.5589 23.4142 53.7829 23.4142V21.6542H58.3429V17.2222H51.8789V18.7102H56.4549V20.2462H51.9109V24.8862C52.5509 24.8862 53.1749 24.9022 53.8309 24.9022C55.7509 24.9022 58.5349 24.7102 59.7349 24.4062L59.5589 22.9822ZM78.2027 21.7022H76.1867V19.9582H78.2027V18.4222H76.1867V16.2302H74.2987V25.6702H76.1867V23.2382H78.2027V21.7022ZM73.4347 22.6942C71.7547 22.1502 70.1067 20.4222 70.1067 18.2302V16.9342H68.1867V18.3102C68.1867 20.4702 66.7947 22.2782 64.7307 23.0302L65.8507 24.5182C67.1787 24.0542 68.7147 22.6142 69.1627 21.1582C69.7707 22.4862 71.2587 23.7342 72.3467 24.1502L73.4347 22.6942ZM77.1787 29.1742C74.7787 28.7902 72.6667 27.3182 72.6667 25.3662V24.8862H70.7147V25.3662C70.7147 27.3182 68.6187 28.8382 66.1387 29.1422L67.0027 30.6462C69.0187 30.3102 71.0347 28.9662 71.6587 27.6222C72.3467 28.9502 74.4267 30.3262 76.2827 30.6462L77.1787 29.1742ZM94.7136 20.1662V18.6782H84.3296V20.1662H88.4416C87.8976 21.5422 85.8816 22.3262 83.7056 22.5822L84.5056 24.0862C86.4896 23.8942 88.7456 22.8702 89.5296 21.4462C90.4256 22.8382 92.7616 23.9102 94.5056 24.0542L95.3216 22.5502C93.1776 22.3422 91.1936 21.5262 90.6496 20.1662H94.7136ZM90.4256 30.4702V26.2142H95.9616V24.7262H83.0816V26.2142H88.5536V30.4702H90.4256ZM87.1936 17.8782H91.8336V16.3902H87.1936V17.8782ZM110.125 23.2542V21.7022H108.061V16.2302H106.205V30.4862H108.061V23.2542H110.125ZM104.317 17.6862H97.6613V19.2382H102.285C102.029 22.0862 99.9013 25.0782 96.7973 26.5022L97.9333 27.9102C102.301 25.5422 104.189 21.9902 104.317 17.6862ZM118.977 21.1102V19.6222H110.705V21.1102H118.977ZM112.705 18.6302H117.105V17.1582H112.705V18.6302ZM121.921 16.2302H120.033V30.4862H121.921V23.5582H123.905V22.0062H121.921V16.2302ZM111.409 24.6782C111.409 26.4862 112.801 27.7502 114.849 27.7502C116.897 27.7502 118.289 26.4222 118.289 24.6782C118.289 22.8862 116.897 21.6062 114.849 21.6062C112.801 21.6062 111.409 22.9342 111.409 24.6782ZM113.233 24.6782C113.233 23.7342 113.921 23.1102 114.849 23.1102C115.777 23.1102 116.465 23.7342 116.465 24.6782C116.465 25.6062 115.889 26.2302 114.849 26.2302C113.905 26.2302 113.233 25.6062 113.233 24.6782ZM136.405 30.4862V16.2302H134.533V30.4862H136.405ZM132.021 17.7182H125.365V19.2702H130.005C129.749 22.1022 127.621 25.0782 124.501 26.5022L125.653 27.9102C130.005 25.5422 131.909 22.0222 132.021 17.7182Z" fill="white"/>
</svg>
