<svg width="161" height="46" viewBox="0 0 161 46" fill="none" xmlns="http://www.w3.org/2000/svg">
<rect width="161" height="46" rx="2" fill="#A06EE5" fill-opacity="0.15"/>
<path d="M20.096 27.328H21.392L25.264 16.576H23.92L20.848 25.424H20.8L17.696 16.576H16.224L20.096 27.328ZM26.6044 27.328H27.9804V19.376H26.6044V27.328ZM26.6044 17.808H27.9964V16.384H26.6044V17.808ZM33.3174 27.472C35.4934 27.472 36.9654 25.952 36.9654 23.456V23.2C36.9654 20.704 35.6054 19.216 33.3334 19.216C31.1574 19.216 29.7014 20.752 29.7014 23.248V23.52C29.7014 26 31.0294 27.472 33.3174 27.472ZM33.3494 26.352C32.1174 26.352 31.1094 25.696 31.1094 23.552V23.104C31.1094 21.328 31.9094 20.336 33.3014 20.336C34.5334 20.336 35.5414 21.024 35.5414 23.168V23.6C35.5414 25.376 34.7414 26.352 33.3494 26.352ZM38.6669 27.328H40.0429V15.872H38.6669V27.328ZM45.5559 27.472C46.8679 27.472 47.7799 27.056 48.2439 26.704V25.696C47.5239 26.08 46.8359 26.304 45.7799 26.304C44.1959 26.304 43.2679 25.632 43.1719 23.744H48.4839V22.976C48.4839 20.48 47.4439 19.216 45.2679 19.216C43.4119 19.216 41.7639 20.464 41.7639 23.232V23.472C41.7639 25.92 43.0439 27.472 45.5559 27.472ZM45.2039 20.32C46.4039 20.32 47.0439 20.976 47.0439 22.64H43.1719C43.2999 20.816 44.3079 20.32 45.2039 20.32ZM52.8043 27.408C53.5243 27.408 53.8443 27.248 54.1803 27.104V26.176C53.8602 26.256 53.4923 26.304 53.1723 26.304C52.2763 26.304 52.0203 26.016 52.0203 25.264V20.512H54.0203V19.376H52.0203V17.488H50.6603V19.376H49.5243V20.512H50.6603V25.456C50.6603 26.864 51.5403 27.408 52.8043 27.408Z" fill="#D9C2FF"/>
</svg>
