<svg width="162" height="47" viewBox="0 0 162 47" fill="none" xmlns="http://www.w3.org/2000/svg">
<path fill-rule="evenodd" clip-rule="evenodd" d="M2.73047 0.448242C1.6259 0.448242 0.730469 1.34367 0.730469 2.44824V44.4482C0.730469 45.5528 1.6259 46.4482 2.73047 46.4482H146.73L161.73 31.4482V2.44824C161.73 1.34367 160.835 0.448242 159.73 0.448242H2.73047Z" fill="#E089B5"/>
<path d="M18.0425 27.7762H19.4505V23.5362H21.6105C23.6265 23.5362 25.0505 22.4002 25.0505 20.2242C25.0505 18.1922 23.8505 17.0242 21.4665 17.0242H18.0425V27.7762ZM19.4505 22.3682V18.2402H21.3385C22.9385 18.2402 23.5465 18.8322 23.5465 20.3362C23.5465 21.7122 22.9065 22.3682 21.3065 22.3682H19.4505ZM26.6473 27.7762H28.0233V19.8242H26.6473V27.7762ZM26.6473 18.2562H28.0393V16.8322H26.6473V18.2562ZM30.2403 27.7762H31.6003V21.3762C32.1763 21.1042 32.9923 20.8482 33.6963 20.8482C34.9443 20.8482 35.2483 21.2322 35.2483 22.1442V27.7762H36.5923V21.8562C36.5923 20.3202 35.8563 19.6642 34.2883 19.6642C33.3123 19.6642 32.2883 20.0322 31.6163 20.5122H31.5363V19.8242H30.2403V27.7762ZM38.7247 27.7762H40.0847V16.3202H38.7247V27.7762ZM43.4287 27.7762H44.9967L41.6367 23.5682L44.7567 19.8242H43.2687L40.2127 23.6642L43.4287 27.7762Z" fill="white" fill-opacity="0.93"/>
<path d="M146.73 46.4482V33.4482C146.73 32.3437 147.626 31.4482 148.73 31.4482H161.73L146.73 46.4482Z" fill="white" fill-opacity="0.3"/>
</svg>
